<svg width="1052" height="70" viewBox="0 0 1052 70" fill="none" xmlns="http://www.w3.org/2000/svg">
<rect x="525" width="2" height="70" fill="#BCBCBC"/>
<rect x="547" y="35" width="1" height="35" fill="#626262"/>
<rect width="1" height="35" transform="matrix(-1 0 0 1 505 35)" fill="#626262"/>
<rect x="673" y="35" width="1" height="35" fill="#626262"/>
<rect width="1" height="35" transform="matrix(-1 0 0 1 379 35)" fill="#626262"/>
<rect x="799" y="35" width="1" height="35" fill="#626262"/>
<rect width="1" height="35" transform="matrix(-1 0 0 1 253 35)" fill="#626262"/>
<rect x="925" y="35" width="1" height="35" fill="#626262"/>
<rect width="1" height="35" transform="matrix(-1 0 0 1 127 35)" fill="#626262"/>
<rect x="589" y="35" width="1" height="35" fill="#626262"/>
<rect width="1" height="35" transform="matrix(-1 0 0 1 463 35)" fill="#626262"/>
<rect x="715" y="35" width="1" height="35" fill="#626262"/>
<rect width="1" height="35" transform="matrix(-1 0 0 1 337 35)" fill="#626262"/>
<rect x="841" y="35" width="1" height="35" fill="#626262"/>
<rect width="1" height="35" transform="matrix(-1 0 0 1 211 35)" fill="#626262"/>
<rect x="967" y="35" width="1" height="35" fill="#626262"/>
<rect width="1" height="35" transform="matrix(-1 0 0 1 85 35)" fill="#626262"/>
<rect x="631" y="35" width="1" height="35" fill="#626262"/>
<rect width="1" height="35" transform="matrix(-1 0 0 1 421 35)" fill="#626262"/>
<rect x="757" y="35" width="1" height="35" fill="#626262"/>
<rect width="1" height="35" transform="matrix(-1 0 0 1 295 35)" fill="#626262"/>
<rect x="883" y="35" width="1" height="35" fill="#626262"/>
<rect width="1" height="35" transform="matrix(-1 0 0 1 169 35)" fill="#626262"/>
<rect x="1009" y="35" width="1" height="35" fill="#626262"/>
<rect width="1" height="35" transform="matrix(-1 0 0 1 43 35)" fill="#626262"/>
<rect x="1051" y="35" width="1" height="35" fill="#626262"/>
<rect width="1" height="35" transform="matrix(-1 0 0 1 1 35)" fill="#626262"/>
<rect x="568" y="20" width="1" height="50" fill="#626262"/>
<rect width="1" height="50" transform="matrix(-1 0 0 1 484 20)" fill="#626262"/>
<rect x="694" y="20" width="1" height="50" fill="#626262"/>
<rect width="1" height="50" transform="matrix(-1 0 0 1 358 20)" fill="#626262"/>
<rect x="820" y="20" width="1" height="50" fill="#626262"/>
<rect width="1" height="50" transform="matrix(-1 0 0 1 232 20)" fill="#626262"/>
<rect x="946" y="20" width="1" height="50" fill="#626262"/>
<rect width="1" height="50" transform="matrix(-1 0 0 1 106 20)" fill="#626262"/>
<rect x="610" y="20" width="1" height="50" fill="#626262"/>
<rect width="1" height="50" transform="matrix(-1 0 0 1 442 20)" fill="#626262"/>
<rect x="736" y="20" width="1" height="50" fill="#626262"/>
<rect width="1" height="50" transform="matrix(-1 0 0 1 316 20)" fill="#626262"/>
<rect x="862" y="20" width="1" height="50" fill="#626262"/>
<rect width="1" height="50" transform="matrix(-1 0 0 1 190 20)" fill="#626262"/>
<rect x="988" y="20" width="1" height="50" fill="#626262"/>
<rect width="1" height="50" transform="matrix(-1 0 0 1 64 20)" fill="#626262"/>
<rect x="652" y="15" width="1" height="55" fill="#BCBCBC"/>
<rect width="1" height="55" transform="matrix(-1 0 0 1 400 15)" fill="#BCBCBC"/>
<rect x="778" y="15" width="1" height="55" fill="#BCBCBC"/>
<rect width="1" height="55" transform="matrix(-1 0 0 1 274 15)" fill="#BCBCBC"/>
<rect x="904" y="15" width="1" height="55" fill="#BCBCBC"/>
<rect width="1" height="55" transform="matrix(-1 0 0 1 148 15)" fill="#BCBCBC"/>
<rect x="1030" y="15" width="1" height="55" fill="#BCBCBC"/>
<rect width="1" height="55" transform="matrix(-1 0 0 1 22 15)" fill="#BCBCBC"/>
</svg>
