<svg width="74" height="74" viewBox="0 0 74 74" fill="none" xmlns="http://www.w3.org/2000/svg">
<g clip-path="url(#clip0_4_611)">
<path d="M36.9095 3.97262C36.17 3.97262 35.4305 4.05051 34.7299 4.08946C34.3797 4.12841 33.9905 4.16736 33.6402 4.16736C33.4456 4.16736 33.2899 4.24525 33.0953 4.16736C32.9007 4.08946 32.8229 3.97262 32.8229 3.73893C32.8229 3.69999 32.8229 3.62209 32.8229 3.58314C32.784 3.03788 32.4337 2.37578 31.8499 2.25893C31.4607 2.18104 30.4487 2.41472 30.0985 2.49262C28.9309 2.76525 27.8022 2.99893 26.7124 3.42736C26.6735 3.42736 26.6346 3.4663 26.5957 3.4663C26.2454 3.62209 25.8562 3.31051 25.934 2.92104C25.934 2.84314 25.9729 2.8042 25.9729 2.76525C26.0897 2.37578 25.8173 1.9863 25.3891 2.02525C25.3113 2.02525 25.2335 2.0642 25.1945 2.10314C24.9221 2.21999 24.6497 2.33683 24.4161 2.49262C23.7545 2.84314 23.1318 3.19367 22.5091 3.58314C21.2636 4.36209 20.0182 5.10209 18.8895 6.11472C18.8506 6.15367 18.8117 6.19262 18.7727 6.23157C18.5392 6.5042 18.0333 6.38736 17.9943 5.99788C17.9554 5.6863 17.9165 5.37472 17.9165 5.0242C17.8776 4.59578 17.2938 4.40104 17.0213 4.75157C16.0873 5.80314 15.1532 6.81578 14.258 7.86736C13.5185 8.68525 12.8569 9.54209 12.312 10.5158C12.2731 10.5937 12.1953 10.7105 12.1563 10.7884C12.0007 11.061 11.5725 11.1 11.4169 10.8274C11.3779 10.7884 11.339 10.7495 11.3001 10.7105C10.6774 9.93157 9.58761 10.1652 9.27625 11.1C8.96489 11.9179 8.69245 12.6968 8.42001 13.5147C7.87513 14.9558 7.36917 16.3968 7.21349 17.9937C7.17457 18.3442 6.82429 18.5 6.51293 18.3442C6.00697 18.0716 5.3064 18.1105 4.83936 18.461C4.25556 18.8895 4.17772 19.3568 4.17772 20.0189C4.1388 20.8758 4.06096 21.6937 4.02204 22.5505C3.9442 23.68 3.9442 24.8095 4.09988 25.9389C4.1388 26.2895 3.82744 26.5621 3.47716 26.4453C2.15388 26.0168 1.0252 27.3021 1.53116 28.5874C1.68684 29.1716 1.8036 29.7558 1.88144 30.34C2.11496 31.5863 2.3874 32.7937 2.89336 33.9621C3.08796 34.3905 2.62092 34.78 2.23172 34.5463C2.1928 34.5463 2.15388 34.5074 2.11496 34.5074C0.90844 33.8452 -0.181321 34.9358 0.4414 36.1431C0.86952 36.961 1.57008 38.441 2.03712 39.2589C2.69876 40.4274 3.555 41.9074 4.02204 42.5695C4.17772 42.8031 4.3334 42.9979 4.528 43.1926C4.76152 43.4653 4.64476 43.8547 4.29448 43.9716C3.82744 44.0884 3.43824 44.4389 3.32148 44.6337C3.1658 44.9063 2.93228 45.88 3.51608 46.6589C4.1388 47.5158 5.3064 48.9179 6.12373 49.6189C6.90213 50.281 7.64161 50.8652 8.38109 51.3716C8.65353 51.5663 8.65353 51.9947 8.34217 52.1505C8.30325 52.1505 8.30325 52.1895 8.26433 52.1895C7.83621 52.4621 7.60269 52.6179 7.56377 53.4358C7.52485 54.2926 8.03081 54.6431 8.61461 55.0716C9.15949 55.461 9.74329 55.8505 10.3271 56.201C11.4558 56.941 12.6234 57.6421 13.9077 58.1484C14.2969 58.3042 14.3359 58.8105 13.9856 59.0053C12.9347 59.5895 13.1293 61.0695 14.2969 61.381C14.9586 61.5368 15.6202 61.7316 16.2429 61.8874C16.7878 62.0431 17.1381 62.1989 17.1381 62.861C17.1381 65.3926 17.1381 68.5863 17.1381 71.1179C17.1381 71.6242 17.5662 72.0526 18.0722 72.0526C23.7545 72.0526 29.4368 72.0526 35.1192 72.0526C35.7419 72.0526 36.4035 72.0526 37.0262 72.0526C43.3702 72.0137 49.7142 72.0916 56.0581 72.0526C56.5641 72.0526 56.9922 71.6242 56.9922 71.1179C56.9922 68.5863 56.9533 65.3147 56.9533 62.7831C56.9533 62.3547 57.2257 61.9653 57.6539 61.8874C57.7317 61.8874 57.7706 61.8484 57.8484 61.8484C58.5101 61.6926 59.1717 61.4979 59.7945 61.3421C61.0788 60.9916 61.0399 59.4726 60.1058 58.9663C59.7555 58.7716 59.7944 58.2653 60.1447 58.1095C61.3512 57.6421 62.1686 57.1747 63.7254 56.1621C65.1654 55.2274 66.0995 54.6042 66.5276 54.3705C67.0725 54.02 67.2282 53.0074 66.2552 52.4621C66.0995 52.3842 65.9438 52.2674 65.7492 52.1895C65.7103 52.1895 65.7103 52.1505 65.6714 52.1505C65.36 51.9947 65.36 51.5663 65.6325 51.3716C66.7222 50.5926 67.9287 49.541 68.6293 48.6453L68.6682 48.6063C69.0963 48.061 69.7191 47.36 69.9915 47.0484C70.4196 46.62 71.1591 45.88 70.731 44.8674C70.5364 44.4 70.1472 44.0495 69.6801 43.9326C69.3299 43.8547 69.2131 43.4263 69.4466 43.1537C69.6412 42.9589 69.7969 42.7253 69.9526 42.5305C70.4196 41.8684 71.2759 40.3495 71.8986 39.181C72.4435 38.1295 72.9883 37.0779 73.5332 36.0653C74.1949 34.78 72.9883 33.8063 71.8597 34.4295C71.8207 34.4295 71.7818 34.4684 71.7429 34.4684C71.3537 34.7021 70.9256 34.2737 71.0813 33.8842C71.5094 32.8716 71.8597 31.7031 72.0932 30.2621C72.2489 29.4052 72.4045 28.7042 72.4435 28.5095C72.7159 27.8084 72.4824 27.2631 72.3267 26.9905C72.0543 26.5231 71.5483 26.2505 71.0034 26.2895C70.8088 26.2895 70.6531 26.3284 70.4975 26.3674C70.1472 26.4842 69.8358 26.2116 69.8747 25.861C70.0693 24.6926 70.0304 23.4853 69.9526 22.4726C69.8747 21.46 69.7969 20.3305 69.7969 19.941C69.758 18.1884 68.4736 18.1105 68.2012 18.1105C67.8898 18.1105 67.6563 18.1884 67.4617 18.3053C67.1503 18.461 66.8001 18.2663 66.7611 17.9547C66.6444 16.7474 66.2163 15.3453 65.5157 13.5147C65.5157 13.5147 65.1265 12.4631 64.6205 11.061C64.2703 10.0874 63.1416 10.0484 62.5967 10.7495C62.5578 10.7884 62.5189 10.8274 62.4799 10.8663C62.4021 10.9831 62.2853 11.0221 62.1297 11.0221C61.9351 11.0221 61.8183 10.9442 61.7405 10.7884C61.7405 10.7884 61.6237 10.5937 61.5848 10.5158C61.1956 9.81472 60.3004 8.6463 59.6388 7.86736C58.7047 6.81578 57.7706 5.80314 56.8365 4.75157C56.7587 4.63472 56.603 4.55683 56.4473 4.55683C56.1749 4.55683 55.9803 4.75157 55.9414 5.0242C55.9025 5.33578 55.8635 5.64736 55.8635 5.99788C55.8246 6.23157 55.63 6.38736 55.3965 6.38736C55.2408 6.38736 55.163 6.34841 55.0851 6.23157C55.0462 6.19262 55.0073 6.15367 54.9684 6.15367C53.4894 4.79051 49.9477 2.7263 48.5466 2.14209C48.2352 2.02525 47.6514 2.25893 47.846 2.84314C47.846 2.92104 47.8849 2.99893 47.8849 2.99893C47.8849 3.03788 47.8849 3.07683 47.8849 3.11578C47.8849 3.38841 47.6903 3.58314 47.4179 3.58314C47.34 3.58314 47.2622 3.58314 47.2233 3.5442C47.1844 3.5442 47.1454 3.50525 47.1065 3.50525C46.4838 3.23262 45.7054 3.03788 44.8492 2.84314C43.448 2.53157 42.7864 2.37578 42.4361 2.33683C41.7356 2.25893 41.3074 2.64841 41.1128 3.27157C41.0739 3.38841 41.035 3.5442 41.035 3.69999C41.035 3.73893 41.035 3.81683 41.035 3.85578C41.035 4.08946 40.8404 4.2842 40.6069 4.32314C40.3734 4.36209 38.0771 4.12841 36.9095 4.12841" fill="black"/>
<path d="M56.3304 34.04C56.3304 44.6726 47.6901 53.3189 37.065 53.3189C26.4398 53.3189 17.7995 44.6726 17.7995 34.04C17.7995 23.4073 26.4398 14.761 37.065 14.761C47.6901 14.761 56.3304 23.4073 56.3304 34.04ZM57.0699 34.04C57.0699 22.9789 48.0793 14.021 37.065 14.021C26.0117 14.021 17.0601 23.0179 17.0601 34.04C17.0601 45.101 26.0506 54.0589 37.065 54.0589C48.0793 54.0979 57.0699 45.101 57.0699 34.04Z" fill="#A5A8A9"/>
<path d="M71.626 28.3537C71.7428 27.9252 71.6649 27.7695 71.626 27.7305C71.626 27.6916 71.5482 27.6916 71.5093 27.6916C71.1201 27.6916 68.1232 30.6516 67.5394 31.4305C67.3448 31.6642 67.228 31.8979 67.0724 32.1705C67.0724 32.3263 67.1113 32.4431 67.1113 32.5989C67.1502 33.1831 67.1502 33.7673 67.1502 34.3516C67.1502 35.1695 67.1113 35.9484 67.0334 36.7274C67.228 36.6495 67.4226 36.5326 67.6562 36.3768C69.2519 35.1695 70.3806 33.1831 71.1201 30.34C71.3147 29.6389 71.4703 28.9768 71.626 28.3537Z" fill="#AD9752"/>
<path d="M65.3988 44.4779H65.4377C68.4735 44.1273 72.132 36.8052 71.9763 36.4937C71.9763 36.4547 71.9374 36.4547 71.9374 36.4158C71.8985 36.4158 71.8985 36.4158 71.8595 36.4158C71.6649 36.4158 68.6681 38.2073 67.6951 38.8305C67.3059 39.0642 66.9556 39.3368 66.6832 39.5705C66.6832 39.6873 66.6442 39.8042 66.6442 39.8821C66.3329 41.44 65.9048 42.9979 65.3988 44.4779Z" fill="#AD9752"/>
<path d="M56.0969 57.6421H56.1358C57.3034 57.6421 58.51 57.3695 59.7165 56.9411C60.923 56.4737 64.9707 54.0979 65.2431 53.7084C65.2821 53.6695 65.2821 53.5916 65.2431 53.5526C65.2042 53.4747 65.0485 53.4358 64.6593 53.4358C64.1145 53.4358 63.0636 53.5137 60.923 53.6695C60.6116 53.7084 60.3003 53.7084 60.0278 53.7474C59.95 53.8253 59.9111 53.9032 59.8332 53.9811C58.7046 55.3053 57.4591 56.5126 56.0969 57.6421Z" fill="#AD9752"/>
<path d="M61.6625 51.6831C63.336 51.5663 65.5934 50.0863 68.3956 47.2042C68.6681 46.9316 69.0184 46.5032 69.4465 45.9189C69.7189 45.5684 69.4854 45.3347 69.0573 45.4126C67.6172 45.7631 65.9437 46.2695 64.348 46.9705C64.309 47.0874 64.2701 47.1653 64.2312 47.2821C63.4917 48.801 62.6355 50.281 61.6625 51.6831Z" fill="#AD9752"/>
<path d="M68.8238 19.6295C68.8238 19.5126 68.6681 19.4737 68.6292 19.5516C68.3567 19.98 68.0454 20.3695 67.7729 20.7979C67.267 21.4989 66.6443 22.5895 66.294 23.2126C65.8659 23.9916 65.7491 24.3421 65.6713 25.0432C65.7491 25.2768 65.8269 25.5105 65.9048 25.7832C66.2161 26.8737 66.4886 27.9642 66.6832 29.0937C67.1891 28.86 67.9286 28.1979 68.24 27.7305C69.0962 26.2895 69.2908 24.4979 69.0184 21.3821C68.9405 20.8368 68.9016 20.2137 68.8238 19.6295Z" fill="#AD9752"/>
<path d="M57.7704 7.32209C57.6536 7.20525 57.5758 7.24419 57.5758 7.39998C57.6147 8.17893 57.6147 8.95788 57.6536 9.77577C57.6926 11.5674 57.7704 12.1126 58.0818 12.8526C58.3153 13.0863 58.5099 13.281 58.7434 13.5147C59.2883 14.06 59.7942 14.6442 60.3002 15.2674C60.4948 15.501 60.6894 15.7347 60.8451 15.9684C60.8451 15.9684 60.8451 15.9684 60.884 15.9684C60.9618 15.9684 61.0008 15.9295 61.0786 15.8905C61.39 15.54 61.5846 14.1768 61.4678 13.1642C61.2732 11.4895 60.6894 10.4379 58.5488 8.13998C58.2764 7.8284 58.0428 7.55577 57.7704 7.32209Z" fill="#AD9752"/>
<path d="M54.2288 61.381H20.0181V69.4042H54.2288V61.381Z" fill="#AD9752"/>
<path d="M29.32 4.08945C26.5956 4.75155 25.5058 5.41366 24.9609 6.77681C26.6734 6.03681 28.4637 5.41366 30.293 4.98524C30.4097 4.94629 30.5265 4.94629 30.6433 4.90734C31.0714 4.40102 31.4606 3.89471 31.3438 3.69997C31.3438 3.66102 31.2271 3.50524 30.9546 3.62208C30.8379 3.73892 30.0984 3.93366 29.32 4.08945Z" fill="#AD9752"/>
<path d="M42.9419 3.69998V3.73893C42.9419 3.89472 43.37 4.43998 43.876 5.02419C43.9927 5.06314 44.1095 5.06314 44.2263 5.10208C46.0555 5.56945 47.8458 6.19261 49.5583 6.97156C49.1691 5.88103 47.8847 4.82945 46.2501 4.40103C45.8609 4.28419 45.3549 4.16735 44.8879 4.01156C44.5765 3.93366 44.3041 3.85577 44.1095 3.77787C43.7592 3.66103 43.2922 3.54419 43.0976 3.54419C43.0587 3.54419 43.0197 3.54419 42.9808 3.58314C42.9808 3.66103 42.9808 3.66103 42.9419 3.69998Z" fill="#AD9752"/>
<path d="M9.70422 13.9821C8.18634 18.1105 8.14742 19.4347 9.43178 21.4989C9.50962 21.6158 9.58746 21.7326 9.6653 21.8884C10.2102 20.72 10.794 19.5905 11.4556 18.5389C11.5335 18.3832 11.6502 18.2274 11.7281 18.0716C11.7281 17.9158 11.7281 17.76 11.7281 17.6042C11.7281 16.4358 11.5724 15.7347 11.0664 14.2937C11.0664 14.2937 10.4437 12.5411 10.4048 12.4242C10.3659 12.3074 10.2102 12.3074 10.1713 12.4242C10.2102 12.58 9.70422 13.9821 9.70422 13.9821Z" fill="#AD9752"/>
<path d="M55.2407 70.4947H19.0061V60.4853H55.2407V70.4947ZM18.578 70.9231H55.6688V60.0179H18.578V70.9231Z" fill="#A5A8A9"/>
<path d="M58.3153 37.8958L58.5877 34.0789L62.4408 34.3126L62.363 35.52L59.4829 35.3252L59.3272 37.9737L58.3153 37.8958Z" fill="#A5A8A9"/>
<path d="M59.0938 27.8474L60.6895 28.1979L59.483 29.2884L59.0938 27.8474ZM58.1986 27.6137L58.7824 29.9505L58.1986 30.4958L58.51 31.7811L61.7404 28.7432L61.3512 27.2632L57.0699 26.2116L57.3813 27.4968L58.1986 27.6137Z" fill="#A5A8A9"/>
<path d="M57.3034 20.7589L56.4082 19.3179L57.2256 18.8116L59.6386 22.6284L58.8213 23.1347L57.9261 21.7326L55.4742 23.2905L54.8514 22.3168L57.3034 20.7589Z" fill="#A5A8A9"/>
<path d="M49.208 16.5526L48.2739 15.8516L50.648 12.8137L52.0881 13.9431L52.127 17.5263L53.8784 15.3063L54.8125 16.0463L52.3994 19.0842L50.9594 17.9547V14.3716H50.9205L49.208 16.5526Z" fill="#A5A8A9"/>
<path d="M45.9777 14.6832L41.8911 13.32L43.0976 9.62L47.1453 10.9832L46.834 11.84L43.9539 10.8663L43.7593 11.4505L46.4837 12.3853L46.2502 13.1253L43.4868 12.2295L43.2922 12.8137L46.2502 13.7874L45.9777 14.6832Z" fill="#A5A8A9"/>
<path d="M35.1969 12.8916L34.0293 12.9305L33.9514 9.03578L35.7807 8.99683L38.0769 11.801L38.038 8.95789H39.2056L39.2835 12.8137L37.4542 12.8526L35.1579 10.0874L35.1969 12.8916Z" fill="#A5A8A9"/>
<path d="M30.1686 9.92992L29.0513 10.2718L30.178 13.9593L31.2953 13.6174L30.1686 9.92992Z" fill="#A5A8A9"/>
<path d="M23.8711 13.7874L22.4699 14.6832L21.964 13.8653L25.8171 11.4895L26.323 12.3074L24.883 13.2032L26.4009 15.6568L25.389 16.28L23.8711 13.7874Z" fill="#A5A8A9"/>
<path d="M19.551 21.8105L18.8115 22.7452L15.8147 20.2916L16.9823 18.8505L20.5629 18.9284L18.3834 17.1368L19.1618 16.2021L22.1197 18.6947L20.9521 20.0968L17.3715 20.0189V20.0579L19.551 21.8105Z" fill="#A5A8A9"/>
<path d="M14.1411 25.9C14.2189 25.6274 14.3746 25.4716 14.4914 25.3937C14.6471 25.3547 14.8417 25.3547 15.0752 25.4326C15.1919 25.4716 15.3476 25.5105 15.4644 25.5495C15.7368 25.6274 15.9314 25.7442 16.0093 25.861C16.0871 25.9779 16.0871 26.1726 16.0093 26.4452C15.8536 26.9126 15.6979 27.4189 15.5422 27.8863C15.4644 28.1589 15.3476 28.3147 15.1919 28.3537C15.0752 28.3926 14.8417 28.3926 14.5692 28.2758C14.4525 28.2368 14.2968 28.1979 14.18 28.1589C13.9465 28.081 13.7519 27.9642 13.6741 27.8474C13.5962 27.6916 13.5962 27.4968 13.6741 27.2242C13.8687 26.7958 14.0243 26.3674 14.1411 25.9ZM17.0601 26.601C17.1379 26.3284 17.2158 26.0947 17.2158 25.9C17.2547 25.7052 17.2158 25.5105 17.1769 25.3158C17.1379 25.16 17.0212 25.0042 16.8655 24.8484C16.7098 24.7316 16.5152 24.6147 16.2428 24.5368C15.8925 24.42 15.5033 24.3031 15.153 24.1863C14.8806 24.1084 14.6471 24.0695 14.4525 24.0695C14.2579 24.0695 14.1022 24.1474 13.9465 24.2642C13.7908 24.381 13.6741 24.4979 13.5573 24.6926C13.4405 24.8874 13.3627 25.0821 13.2459 25.3547C13.0513 25.9389 12.8567 26.5621 12.6232 27.1463C12.5454 27.4189 12.4675 27.6526 12.4675 27.8474C12.4286 28.0421 12.4675 28.2368 12.5065 28.4316C12.5454 28.5874 12.6621 28.7431 12.8178 28.8989C12.9735 29.0158 13.1681 29.1326 13.4405 29.2105C13.7908 29.3274 14.18 29.4442 14.5303 29.561C14.8027 29.6389 15.0363 29.6779 15.2309 29.6779C15.4255 29.6779 15.5811 29.6 15.7368 29.4831C15.8925 29.3663 16.0093 29.2495 16.126 29.0547C16.2428 28.86 16.3206 28.6652 16.4374 28.3926C16.632 27.8084 16.8266 27.2242 17.0601 26.601Z" fill="#A5A8A9"/>
<path d="M15.6589 35.8316C15.6589 36.1042 15.6589 36.3768 15.62 36.5716C15.5811 36.7663 15.5033 36.961 15.4254 37.1168C15.3087 37.2726 15.1919 37.3895 14.9973 37.4673C14.8027 37.5452 14.5692 37.5842 14.2967 37.6231C13.9075 37.6231 13.5183 37.6621 13.1291 37.6621C12.8567 37.6621 12.6232 37.6231 12.4286 37.5842C12.234 37.5063 12.0783 37.3895 12.0004 37.2726C11.8837 37.1168 11.8058 36.961 11.7669 36.7663C11.7669 36.4937 11.728 36.221 11.728 35.9484C11.728 35.481 11.6891 35.0137 11.6891 34.5463C11.6891 34.1179 11.6891 33.8063 11.728 33.5337C11.7669 33.3 11.8448 33.1052 11.9615 32.9495C12.0783 32.8326 12.195 32.7158 12.3896 32.6768C12.5842 32.6379 12.8178 32.5989 13.0902 32.5989C13.0902 32.9884 13.1291 33.3779 13.1291 33.7673C13.0902 33.7673 13.0513 33.7673 13.0124 33.7673C12.8956 33.7673 12.7788 33.8063 12.7399 33.9231C12.701 34.001 12.6621 34.1568 12.6621 34.3516C12.6621 34.78 12.701 35.2084 12.701 35.6368C12.701 35.9484 12.7788 36.1431 12.8956 36.221C13.0124 36.3379 13.207 36.3768 13.4794 36.3379C13.6351 36.3379 13.7518 36.3379 13.9075 36.3379C14.2189 36.3379 14.4135 36.26 14.4913 36.1821C14.6081 36.1042 14.647 35.9095 14.647 35.6368C14.647 35.2084 14.6081 34.78 14.6081 34.3516C14.6081 34.1958 14.6081 34.0789 14.5692 34.001C14.5692 33.9231 14.5302 33.8452 14.4913 33.8063C14.4524 33.7673 14.4135 33.7284 14.3356 33.6895C14.2578 33.6505 14.18 33.6505 14.0632 33.6505C14.0632 33.261 14.0243 32.8716 14.0243 32.4821C14.141 32.4821 14.2578 32.4821 14.3746 32.4821C14.5692 32.4821 14.7248 32.4821 14.8416 32.521C14.9973 32.56 15.1141 32.6379 15.1919 32.7158C15.3087 32.8326 15.3865 32.9495 15.4643 33.1442C15.5422 33.3389 15.5811 33.5726 15.5811 33.8452C15.62 34.5463 15.6589 35.1695 15.6589 35.8316Z" fill="#A5A8A9"/>
<path d="M9.00366 53.4358C9.00366 53.4747 9.00366 53.4747 9.00366 53.5137C9.00366 53.5916 9.00366 53.6695 11.1443 55.0716C13.2459 56.4347 13.8687 56.7074 16.126 57.4084C16.632 57.5642 17.2936 57.6421 17.9553 57.681C16.5931 56.5516 15.3476 55.3442 14.18 53.981C14.1022 53.9031 14.0633 53.8252 13.9854 53.7474C12.234 53.5526 10.2491 53.3579 9.43178 53.3579C9.12042 53.3579 9.04258 53.3968 9.00366 53.3968C9.04258 53.3968 9.00366 53.3968 9.00366 53.4358Z" fill="#AD9752"/>
<path d="M64.1533 12.7747C64.0755 12.7747 63.9198 12.7747 63.3749 14.06C62.83 15.3842 62.7522 15.7737 62.7522 17.5652C62.7522 18.0716 62.7522 18.461 62.7522 18.7726C63.3749 19.8242 63.9587 20.9147 64.4647 22.0442C64.5814 22.0052 64.6593 21.8884 64.815 21.7716C65.3209 21.1874 65.9826 19.4347 65.9826 18.6168C65.9826 17.721 65.1263 14.9168 64.309 12.8916C64.2701 12.8137 64.2312 12.7747 64.1533 12.7747Z" fill="#AD9752"/>
<path d="M50.5314 4.36209C50.2589 4.59578 51.1541 7.1663 51.3487 7.59472C51.4265 7.75051 51.5044 7.9063 51.6211 8.06209C51.8157 8.17893 51.9714 8.25683 52.166 8.37367C53.4115 9.11367 54.618 9.93156 55.7467 10.8274C55.9024 10.36 55.8634 9.4642 55.7077 8.91893C55.3964 7.9063 53.6839 6.15367 52.0882 5.17999C52.0882 5.17999 50.7649 4.36209 50.5703 4.36209C50.5703 4.36209 50.5703 4.36209 50.5314 4.36209Z" fill="#AD9752"/>
<path d="M35.1968 44.9453H26.4787C25.1165 44.9453 23.8322 44.7505 22.6646 44.4389C25.2722 48.061 29.2031 50.6705 33.7957 51.4884C34.2627 49.3074 34.7298 47.1263 35.1968 44.9453Z" fill="#AD9752"/>
<path d="M48.1572 30.9631H54.4622C54.3065 29.9894 54.0341 29.0547 53.7227 28.1589C51.1151 28.1589 48.5074 28.1589 45.8609 28.1589C44.3041 35.3252 42.7473 42.5305 41.1905 49.6968C40.1396 49.6968 39.0888 49.6968 38.038 49.6968C39.5948 42.5305 41.1516 35.3252 42.7084 28.1589C41.6964 28.1589 40.7234 28.1589 39.7115 28.1589C39.9061 27.2631 40.1007 26.3284 40.2953 25.4326C44.343 25.4326 48.3907 25.4326 52.4773 25.3937C51.9324 24.381 51.2708 23.4463 50.5313 22.5894C43.2532 22.5894 35.9752 22.5894 28.6972 22.5894C26.0895 22.5894 23.91 23.3684 22.1197 24.5368C20.5629 26.9905 19.5899 29.8337 19.3953 32.9105C20.0569 30.1452 22.9759 25.4326 28.6972 25.4326C32.2 25.4326 35.7417 25.3937 39.2445 25.3937C39.0499 26.2894 38.8553 27.2242 38.6607 28.12C35.3525 28.12 32.0443 28.1589 28.6972 28.1589C24.3381 28.1589 22.0418 32.56 22.0418 34.1179C22.0418 36.8052 24.0267 38.4021 27.3349 38.4021C28.5415 38.4021 29.7091 38.3631 30.9156 38.3631C31.188 37.1168 31.4605 35.9094 31.7329 34.6631C29.4756 34.6631 27.2182 34.6631 24.9608 34.7021C25.1554 33.8063 25.35 32.8716 25.5446 31.9758C28.8528 31.9758 32.161 31.9758 35.4692 31.9368C34.8076 35.0137 34.146 38.0905 33.4454 41.1673C32.9005 41.1673 32.3946 41.1673 31.8497 41.1673C30.0594 41.1673 28.308 41.1673 26.5176 41.1673C22.6256 41.1673 20.1737 39.3758 19.4731 36.1042C19.7455 38.6358 20.5629 41.0116 21.8083 43.1147C23.1705 43.6989 24.7273 44.0105 26.5176 44.0105C29.5923 44.0105 32.6281 44.0105 35.7028 44.0105C36.6368 39.6873 37.5709 35.3642 38.505 31.041C38.7774 31.041 39.011 31.041 39.2834 31.041C37.8044 37.9347 36.3255 44.7894 34.8076 51.6831C35.5471 51.761 36.3255 51.8389 37.065 51.8389C39.5169 51.8389 41.8521 51.3326 43.9927 50.4368C45.3549 43.8937 46.756 37.4284 48.1572 30.9631Z" fill="#A5A8A9"/>
<path d="M28.6972 21.6158L49.6362 21.5768C46.4448 18.3442 41.969 16.3189 37.065 16.3189C31.6162 16.3189 26.7512 18.7726 23.4819 22.6674C24.9609 22.0442 26.6734 21.6158 28.6972 21.6158Z" fill="#AD9752"/>
<path d="M45.0825 49.8526C50.8038 46.9316 54.7347 40.9726 54.7347 34.0789C54.7347 33.3779 54.6958 32.6768 54.6179 31.9758C52.7498 31.9758 50.8427 31.9758 48.9745 31.9758C47.6902 37.8958 46.4058 43.8937 45.0825 49.8526Z" fill="#AD9752"/>
<path d="M16.4763 7.43892C16.0871 7.90629 15.659 8.33471 15.2698 8.80208C14.5692 9.61998 13.7908 10.6716 13.5184 11.1779C12.9346 12.2684 12.7789 13.8263 13.0903 15.1116C13.1292 15.2673 13.2459 15.6179 13.4016 15.8516L13.4405 15.8126C14.2579 14.761 15.153 13.7873 16.0871 12.8916C16.2428 12.7358 16.3595 12.6189 16.5152 12.5021C16.9433 11.3726 17.099 10.1263 16.9044 8.72419C16.8655 8.33471 16.8266 7.94524 16.7877 7.59471C16.7098 7.36103 16.5931 7.32208 16.4763 7.43892Z" fill="#AD9752"/>
<path d="M23.8711 4.32315C23.7543 4.40105 23.6376 4.44 23.5208 4.51789C23.2873 4.63473 22.5867 5.06315 21.9251 5.45263C19.4731 7.01052 18.1888 8.99684 18.578 10.6326C19.8234 9.65894 21.1467 8.76315 22.5478 8.02315C22.6646 7.94526 22.8203 7.86736 22.937 7.82842C23.2484 7.24421 23.5208 6.5821 23.7543 5.72526C23.8711 5.33579 23.9489 4.90736 24.0657 4.51789C24.1046 4.32315 23.9879 4.24526 23.8711 4.32315Z" fill="#AD9752"/>
<path d="M4.99495 46.1526C5.38415 46.581 6.00687 47.321 6.39607 47.7495C7.44691 48.8789 9.43184 50.4758 10.5605 51.06C10.9497 51.2547 11.806 51.4884 12.4287 51.6442C11.4168 50.2032 10.5216 48.6453 9.78212 47.0484C9.7432 46.9705 9.70428 46.8537 9.66536 46.7758C8.92588 46.4642 7.40799 45.9189 6.24039 45.5684C5.92903 45.4905 5.34523 45.3737 4.99495 45.2958C4.80035 45.2568 4.72251 45.2958 4.64467 45.2958C4.60575 45.3347 4.56683 45.3737 4.56683 45.3737C4.48899 45.6074 4.60575 45.7632 4.99495 46.1526Z" fill="#AD9752"/>
<path d="M7.13552 21.1874C7.01876 20.9537 6.74632 20.5642 6.59064 20.3695C6.08468 19.5905 5.96792 19.4347 5.7344 19.4737C5.50088 19.5126 5.50088 19.7853 5.50088 20.0579C5.50088 20.4084 5.42304 21.5768 5.3452 22.6674C5.11168 25.9779 5.7344 27.9642 7.33012 28.86C7.36905 28.8989 7.40796 28.8989 7.40796 28.8989C7.6804 27.4968 8.03069 26.1337 8.45881 24.8095C8.49773 24.6926 8.53665 24.5758 8.57557 24.4589C8.26421 23.4074 7.68041 22.1221 7.13552 21.1874Z" fill="#AD9752"/>
<path d="M4.68357 29.0158C4.45005 28.7821 3.98301 28.3926 3.67165 28.1979C3.04893 27.7305 2.77649 27.8473 2.81541 28.2368C2.85433 28.7431 3.04893 29.6 3.16569 30.1063C3.82733 33.3779 4.83925 35.2473 6.66849 36.3379C6.74633 36.3768 6.90201 36.4937 7.05769 36.5716C7.01877 35.8316 6.97985 35.0916 6.97985 34.3516C6.97985 33.6116 7.01877 32.9105 7.05769 32.1705C7.05769 32.0537 7.09661 31.9368 7.09661 31.82C6.55173 31.041 5.73441 30.1063 4.68357 29.0158Z" fill="#AD9752"/>
<path d="M3.36031 38.5968C3.98303 39.8042 4.83927 41.2063 5.18955 41.7515C6.00687 42.881 7.33015 43.8547 8.65343 44.361C8.10855 42.8031 7.68043 41.1673 7.36907 39.4926C7.36907 39.4147 7.33015 39.2979 7.33015 39.22C7.25231 39.181 7.17447 39.1421 7.13555 39.0642C6.74635 38.8305 5.92903 38.3631 5.30631 37.9347C4.64467 37.5063 3.74951 36.961 3.24355 36.7273C2.97111 36.5715 2.65975 36.4158 2.3873 36.221C2.27054 36.1431 2.15378 36.26 2.23162 36.3768C2.58191 37.1168 2.97111 37.8568 3.36031 38.5968Z" fill="#AD9752"/>
<path d="M58.0819 60.4853C57.7316 60.5632 57.3813 60.68 56.6418 60.8747C56.6418 60.4853 56.6418 60.0568 56.6418 59.6674C57.1089 59.7453 57.1867 59.7453 57.4981 59.8232C57.9651 59.901 58.4322 59.9789 58.8992 60.0568C59.016 60.0568 59.016 60.2516 58.8992 60.2905C58.6268 60.3684 58.3543 60.4074 58.0819 60.4853Z" fill="#AD9752"/>
<path d="M16.0482 60.4853C16.3985 60.5632 16.7488 60.68 17.4882 60.8747C17.4882 60.4853 17.4882 60.0568 17.4882 59.6674C17.0212 59.7453 16.9434 59.7453 16.632 59.8232C16.165 59.901 15.6979 59.9789 15.2309 60.0568C15.1141 60.0568 15.1141 60.2516 15.2309 60.2905C15.4644 60.3684 15.7758 60.4074 16.0482 60.4853Z" fill="#AD9752"/>
<path d="M23.0538 62.6663H29.5535V64.0684H27.1404V68.2358H25.4279V64.0684H23.0149V62.6663H23.0538Z" fill="black"/>
<path d="M29.787 62.6663H31.4605L32.6281 66.7558L34.0293 62.6663H35.625L37.0261 66.7558L38.1937 62.6663H39.8673L38.077 68.2358H36.131L34.8466 64.5747L33.5622 68.2358H31.6162L29.787 62.6663Z" fill="black"/>
<path d="M40.6456 62.6663H42.3581V68.2358H40.6456V62.6663Z" fill="black"/>
<path d="M43.6036 62.6663H46.2502L49.4416 66.7168V62.6663H51.1541V68.2358H48.5076L45.3161 64.1852V68.2358H43.6036V62.6663Z" fill="black"/>
<path d="M24.3381 52.9295C24.4938 52.6568 24.6106 52.4621 24.7663 52.3452C24.9219 52.1895 25.0776 52.1116 25.2333 52.0726C25.389 52.0337 25.5836 52.0337 25.8171 52.1116C26.0117 52.1895 26.2841 52.2673 26.5566 52.4231L27.6074 53.0073C27.8409 53.1242 28.0355 53.28 28.1912 53.3968C28.3469 53.5137 28.4247 53.6305 28.5026 53.7473C28.5415 53.8642 28.5804 53.981 28.5804 54.0979C28.5804 54.2147 28.5415 54.3316 28.4637 54.4095L28.308 54.6821L27.4128 54.2147C27.4907 54.0979 27.4907 53.981 27.4128 53.9031C27.3739 53.8252 27.2571 53.7084 27.0625 53.6305L26.1674 53.1631C25.9728 53.0852 25.856 53.0463 25.7393 53.0463C25.6225 53.0852 25.5447 53.1631 25.4668 53.28L25.2333 53.6695C25.3501 53.6305 25.5057 53.6305 25.6225 53.6305C25.7393 53.6305 25.9339 53.7084 26.1285 53.8252L27.1015 54.3316C27.335 54.4484 27.5296 54.6042 27.6853 54.721C27.802 54.8379 27.9188 54.9547 27.9577 55.0716C27.9966 55.1884 27.9966 55.3052 27.9577 55.461C27.9188 55.5779 27.8799 55.7337 27.802 55.8895L27.6463 56.1621C27.5296 56.3568 27.4128 56.5126 27.2961 56.6295C27.1793 56.7073 27.0625 56.7852 26.9069 56.7852C26.7901 56.7852 26.6344 56.7852 26.4787 56.7073C26.3231 56.6295 26.1285 56.5516 25.9339 56.4737L24.4549 55.6947C24.2603 55.5779 24.1046 55.461 23.9489 55.3442C23.8322 55.2273 23.7154 55.0716 23.6765 54.9547C23.6376 54.7989 23.5987 54.6431 23.6376 54.4873C23.6765 54.2926 23.7543 54.0979 23.8711 53.9031L24.3381 52.9295ZM25.9728 55.6168C26.0895 55.6558 26.1674 55.6947 26.2452 55.7337C26.3231 55.7726 26.362 55.7726 26.4398 55.7726C26.4787 55.7726 26.5566 55.7337 26.5955 55.6947C26.6344 55.6558 26.6733 55.6168 26.7123 55.5389C26.7512 55.461 26.7901 55.4221 26.7901 55.3442C26.7901 55.3052 26.7901 55.2273 26.7512 55.1884C26.7123 55.1495 26.6733 55.0716 26.6344 55.0326C26.5566 54.9937 26.4787 54.9158 26.4009 54.8768L25.5057 54.4095C25.389 54.3705 25.3111 54.3316 25.2333 54.2926C25.1555 54.2537 25.0776 54.2537 25.0387 54.2537C24.9998 54.2537 24.9219 54.2926 24.883 54.3316C24.8441 54.3705 24.8052 54.4095 24.7663 54.4873C24.7273 54.5652 24.6884 54.6042 24.6884 54.6821C24.6884 54.721 24.6884 54.7989 24.6884 54.8379C24.7273 54.8768 24.7663 54.9547 24.8052 54.9937C24.8441 55.0326 24.9609 55.1105 25.0387 55.1495L25.9728 55.6168Z" fill="#A5A8A9"/>
<path d="M34.652 55.2274H38.8164V56.0452H35.6639V56.7074C35.7028 56.6684 35.7418 56.6295 35.7807 56.6295C35.8196 56.5905 35.8585 56.5905 35.9364 56.5516C35.9753 56.5126 36.0531 56.5126 36.131 56.5126C36.2088 56.5126 36.2866 56.5126 36.4034 56.5126H37.7267C37.9213 56.5126 38.1159 56.5126 38.2716 56.5516C38.4272 56.5905 38.544 56.6295 38.6608 56.7463C38.7775 56.8242 38.8554 56.941 38.8943 57.0968C38.9332 57.2526 38.9721 57.4084 38.9721 57.6421V57.8758C38.9721 58.1484 38.9332 58.3821 38.8554 58.5768C38.7775 58.7326 38.6608 58.8884 38.5051 58.9663C38.3494 59.0442 38.1548 59.1221 37.9213 59.1221C37.6878 59.161 37.4153 59.161 37.104 59.161H36.1699C35.8974 59.161 35.625 59.161 35.4304 59.1221C35.2358 59.0831 35.0412 59.0442 34.8855 59.0052C34.7298 58.9274 34.652 58.8495 34.5742 58.6937C34.4963 58.5768 34.4574 58.3821 34.4574 58.1484V57.9147H35.5472C35.5472 57.9926 35.5472 58.0705 35.5861 58.1095C35.5861 58.1484 35.625 58.1874 35.6639 58.2263C35.7028 58.2652 35.7807 58.2652 35.8585 58.3042C35.9364 58.3042 36.0531 58.3042 36.1699 58.3042H37.2596C37.3764 58.3042 37.4932 58.3042 37.571 58.2653C37.6488 58.2653 37.7267 58.2263 37.7656 58.1874C37.8045 58.1484 37.8434 58.1095 37.8434 58.0316C37.8434 57.9537 37.8434 57.8758 37.8434 57.7979C37.8434 57.681 37.8434 57.6031 37.8045 57.5252C37.7656 57.4474 37.7656 57.4084 37.6878 57.3695C37.6488 57.3305 37.571 57.3305 37.4932 57.2916C37.4153 57.2916 37.2986 57.2916 37.1429 57.2916H35.8974C35.8196 57.2916 35.7418 57.3305 35.6639 57.3695C35.5861 57.4084 35.5472 57.4863 35.5472 57.5642H34.5352L34.652 55.2274Z" fill="#A5A8A9"/>
<path d="M45.1993 55.3053C45.0825 55.0326 45.0047 54.8379 44.9658 54.6431C44.9268 54.4484 44.9268 54.2537 45.0047 54.0979C45.0825 53.9421 45.1993 53.7863 45.355 53.6305C45.5106 53.4747 45.7442 53.3579 46.0166 53.2021L47.2231 52.5789C47.4956 52.4231 47.7291 52.3452 47.9626 52.2674C48.1572 52.2284 48.3518 52.1895 48.5464 52.2674C48.7021 52.3063 48.8578 52.4231 49.0134 52.54C49.1691 52.6958 49.2859 52.8905 49.4026 53.1631L49.8697 54.0979C49.9864 54.3316 50.0643 54.5263 50.0643 54.6821C50.1032 54.8768 50.0643 55.0326 50.0254 55.1495C49.9864 55.3053 49.8697 55.4221 49.7529 55.5389C49.6362 55.6558 49.4416 55.7726 49.247 55.8895L47.4956 56.7853C47.301 56.9021 47.1064 56.941 46.9507 56.98C46.795 57.0189 46.6004 57.0189 46.4836 56.98C46.328 56.941 46.2112 56.8631 46.0555 56.7463C45.9387 56.6295 45.822 56.4347 45.7052 56.24L45.1993 55.3053ZM46.6004 55.5389C46.6393 55.6168 46.6782 55.6947 46.7561 55.7726C46.795 55.8116 46.8728 55.8505 46.9118 55.8895C46.9896 55.9284 47.0674 55.9284 47.1453 55.8895C47.2231 55.8895 47.3399 55.8505 47.4566 55.7726L48.4296 55.2663C48.5464 55.1884 48.6632 55.1495 48.7021 55.0716C48.7799 54.9937 48.8188 54.9547 48.8188 54.8768C48.8578 54.7989 48.8578 54.721 48.8188 54.6821C48.8188 54.6042 48.7799 54.5263 48.741 54.4484L48.3518 53.7084C48.3129 53.6305 48.274 53.5526 48.1961 53.4747C48.1572 53.4358 48.0794 53.3968 48.0404 53.3579C47.9626 53.3189 47.8848 53.3189 47.8069 53.3579C47.7291 53.3579 47.6123 53.3968 47.4956 53.4747L46.5226 53.981C46.4058 54.0589 46.289 54.0979 46.2501 54.1758C46.1723 54.2537 46.1334 54.2926 46.1334 54.3705C46.0944 54.4484 46.0944 54.5263 46.1334 54.5653C46.1334 54.6431 46.1723 54.721 46.2112 54.7989L46.6004 55.5389Z" fill="#A5A8A9"/>
<path d="M37.0261 5.17999C20.991 5.17999 8.03064 18.1884 8.03064 34.1958C8.03064 44.8284 13.7519 54.1758 22.3143 59.2H26.7901C16.9822 55.1495 10.0156 45.4516 10.0156 34.1958C10.0156 19.2789 22.1197 7.16631 37.0261 7.16631C51.9324 7.16631 64.0366 19.2789 64.0366 34.1958C64.0366 45.4905 57.1088 55.1495 47.262 59.2H51.7378C60.3003 54.1368 66.0215 44.8284 66.0215 34.1958C66.0215 18.1884 53.0611 5.17999 37.0261 5.17999Z" fill="#A5A8A9"/>
</g>
<defs>
<clipPath id="clip0_4_611">
<rect width="73.9481" height="74" fill="white" transform="translate(0.052002)"/>
</clipPath>
</defs>
</svg>
