<svg width="1158" height="108" viewBox="0 0 1158 108" fill="none" xmlns="http://www.w3.org/2000/svg">
<rect x="578" y="38" width="2" height="70" fill="#BCBCBC"/>
<rect x="600" y="73" width="1" height="35" fill="#626262"/>
<rect width="1" height="35" transform="matrix(-1 0 0 1 558 73)" fill="#626262"/>
<rect x="726" y="73" width="1" height="35" fill="#626262"/>
<rect width="1" height="35" transform="matrix(-1 0 0 1 432 73)" fill="#626262"/>
<rect x="852" y="73" width="1" height="35" fill="#626262"/>
<rect width="1" height="35" transform="matrix(-1 0 0 1 306 73)" fill="#626262"/>
<rect x="978" y="73" width="1" height="35" fill="#626262"/>
<rect width="1" height="35" transform="matrix(-1 0 0 1 180 73)" fill="#626262"/>
<rect x="642" y="73" width="1" height="35" fill="#626262"/>
<rect width="1" height="35" transform="matrix(-1 0 0 1 516 73)" fill="#626262"/>
<rect x="768" y="73" width="1" height="35" fill="#626262"/>
<rect width="1" height="35" transform="matrix(-1 0 0 1 390 73)" fill="#626262"/>
<rect x="894" y="73" width="1" height="35" fill="#626262"/>
<rect width="1" height="35" transform="matrix(-1 0 0 1 264 73)" fill="#626262"/>
<rect x="1020" y="73" width="1" height="35" fill="#626262"/>
<rect width="1" height="35" transform="matrix(-1 0 0 1 138 73)" fill="#626262"/>
<rect x="684" y="73" width="1" height="35" fill="#626262"/>
<rect width="1" height="35" transform="matrix(-1 0 0 1 474 73)" fill="#626262"/>
<rect x="810" y="73" width="1" height="35" fill="#626262"/>
<rect width="1" height="35" transform="matrix(-1 0 0 1 348 73)" fill="#626262"/>
<rect x="936" y="73" width="1" height="35" fill="#626262"/>
<rect width="1" height="35" transform="matrix(-1 0 0 1 222 73)" fill="#626262"/>
<rect x="1062" y="73" width="1" height="35" fill="#626262"/>
<rect width="1" height="35" transform="matrix(-1 0 0 1 96 73)" fill="#626262"/>
<rect x="1104" y="73" width="1" height="35" fill="#626262"/>
<rect width="1" height="35" transform="matrix(-1 0 0 1 54 73)" fill="#626262"/>
<rect x="621" y="58" width="1" height="50" fill="#626262"/>
<rect width="1" height="50" transform="matrix(-1 0 0 1 537 58)" fill="#626262"/>
<rect x="747" y="58" width="1" height="50" fill="#626262"/>
<rect width="1" height="50" transform="matrix(-1 0 0 1 411 58)" fill="#626262"/>
<rect x="873" y="58" width="1" height="50" fill="#626262"/>
<rect width="1" height="50" transform="matrix(-1 0 0 1 285 58)" fill="#626262"/>
<rect x="999" y="58" width="1" height="50" fill="#626262"/>
<rect width="1" height="50" transform="matrix(-1 0 0 1 159 58)" fill="#626262"/>
<rect x="663" y="58" width="1" height="50" fill="#626262"/>
<rect width="1" height="50" transform="matrix(-1 0 0 1 495 58)" fill="#626262"/>
<rect x="789" y="58" width="1" height="50" fill="#626262"/>
<rect width="1" height="50" transform="matrix(-1 0 0 1 369 58)" fill="#626262"/>
<rect x="915" y="58" width="1" height="50" fill="#626262"/>
<rect width="1" height="50" transform="matrix(-1 0 0 1 243 58)" fill="#626262"/>
<rect x="1041" y="58" width="1" height="50" fill="#626262"/>
<rect width="1" height="50" transform="matrix(-1 0 0 1 117 58)" fill="#626262"/>
<rect x="705" y="53" width="1" height="55" fill="#BCBCBC"/>
<rect width="1" height="55" transform="matrix(-1 0 0 1 453 53)" fill="#BCBCBC"/>
<rect x="831" y="53" width="1" height="55" fill="#BCBCBC"/>
<rect width="1" height="55" transform="matrix(-1 0 0 1 327 53)" fill="#BCBCBC"/>
<rect x="957" y="53" width="1" height="55" fill="#BCBCBC"/>
<rect width="1" height="55" transform="matrix(-1 0 0 1 201 53)" fill="#BCBCBC"/>
<rect x="1083" y="53" width="1" height="55" fill="#BCBCBC"/>
<rect width="1" height="55" transform="matrix(-1 0 0 1 75 53)" fill="#BCBCBC"/>
<path d="M544.542 27V24.246H548.916V11.313H548.268L544.515 13.851V10.692L548.295 8.1H552.048V24.246H556.071V27H544.542ZM566.589 20.52C564.861 20.52 563.412 19.944 562.242 18.792C561.09 17.622 560.514 16.128 560.514 14.31C560.514 12.456 561.117 10.899 562.323 9.639C563.547 8.361 565.176 7.722 567.21 7.722C569.442 7.722 571.206 8.469 572.502 9.963C573.798 11.457 574.446 13.833 574.446 17.091C574.446 19.089 574.185 20.844 573.663 22.356C573.159 23.85 572.34 25.056 571.206 25.974C570.072 26.892 568.677 27.351 567.021 27.351C565.401 27.351 564.051 26.91 562.971 26.028C561.891 25.128 561.243 23.985 561.027 22.599H564.132C564.564 23.985 565.545 24.678 567.075 24.678C568.371 24.678 569.397 24.183 570.153 23.193C570.909 22.203 571.332 20.763 571.422 18.873H570.774C569.766 19.971 568.371 20.52 566.589 20.52ZM569.883 11.448C569.199 10.764 568.326 10.422 567.264 10.422C566.202 10.422 565.338 10.755 564.672 11.421C564.006 12.069 563.673 12.996 563.673 14.202C563.673 15.408 564.006 16.326 564.672 16.956C565.338 17.586 566.211 17.901 567.291 17.901C568.353 17.901 569.217 17.586 569.883 16.956C570.567 16.308 570.909 15.399 570.909 14.229C570.909 13.041 570.567 12.114 569.883 11.448ZM587.552 14.553C589.28 14.553 590.72 15.138 591.872 16.308C593.042 17.46 593.627 18.945 593.627 20.763C593.627 22.617 593.015 24.183 591.791 25.461C590.585 26.721 588.965 27.351 586.931 27.351C584.699 27.351 582.935 26.604 581.639 25.11C580.343 23.616 579.695 21.24 579.695 17.982C579.695 15.984 579.947 14.238 580.451 12.744C580.973 11.232 581.801 10.017 582.935 9.099C584.069 8.181 585.464 7.722 587.12 7.722C588.74 7.722 590.09 8.172 591.17 9.072C592.25 9.954 592.898 11.088 593.114 12.474H590.009C589.577 11.088 588.596 10.395 587.066 10.395C585.77 10.395 584.744 10.89 583.988 11.88C583.232 12.87 582.809 14.31 582.719 16.2H583.367C584.375 15.102 585.77 14.553 587.552 14.553ZM584.258 23.652C584.942 24.318 585.815 24.651 586.877 24.651C587.939 24.651 588.803 24.327 589.469 23.679C590.135 23.013 590.468 22.077 590.468 20.871C590.468 19.665 590.135 18.747 589.469 18.117C588.803 17.487 587.93 17.172 586.85 17.172C585.788 17.172 584.915 17.496 584.231 18.144C583.565 18.774 583.232 19.674 583.232 20.844C583.232 22.032 583.574 22.968 584.258 23.652ZM610.378 20.007H612.835V22.761H610.378V27H607.327V22.761H598.147V19.359L606.463 8.1H610.378V20.007ZM601.252 20.007H607.408V11.664H606.76L601.252 19.359V20.007Z" fill="#BCBCBC"/>
<path d="M810.496 34V32.596H813.484V23.056H813.124L810.478 24.838V23.182L813.106 21.4H815.068V32.596H817.822V34H810.496ZM824.931 29.59C823.779 29.59 822.819 29.206 822.051 28.438C821.283 27.658 820.899 26.674 820.899 25.486C820.899 24.25 821.283 23.218 822.051 22.39C822.831 21.562 823.875 21.148 825.183 21.148C826.611 21.148 827.739 21.64 828.567 22.624C829.395 23.608 829.809 25.18 829.809 27.34C829.809 29.368 829.401 31.024 828.585 32.308C827.781 33.592 826.593 34.234 825.021 34.234C823.977 34.234 823.119 33.958 822.447 33.406C821.787 32.842 821.385 32.116 821.241 31.228H822.807C823.119 32.296 823.857 32.83 825.021 32.83C826.017 32.83 826.797 32.434 827.361 31.642C827.925 30.85 828.231 29.758 828.279 28.366H827.883C827.619 28.69 827.229 28.978 826.713 29.23C826.209 29.47 825.615 29.59 824.931 29.59ZM827.181 23.326C826.653 22.81 825.993 22.552 825.201 22.552C824.409 22.552 823.755 22.804 823.239 23.308C822.735 23.812 822.483 24.514 822.483 25.414C822.483 26.314 822.741 27.004 823.257 27.484C823.773 27.964 824.433 28.204 825.237 28.204C826.029 28.204 826.683 27.958 827.199 27.466C827.715 26.974 827.973 26.296 827.973 25.432C827.973 24.544 827.709 23.842 827.181 23.326ZM838.282 25.792C839.434 25.792 840.394 26.182 841.162 26.962C841.93 27.73 842.314 28.708 842.314 29.896C842.314 31.132 841.924 32.164 841.144 32.992C840.376 33.82 839.338 34.234 838.03 34.234C836.602 34.234 835.474 33.742 834.646 32.758C833.818 31.774 833.404 30.202 833.404 28.042C833.404 26.014 833.806 24.358 834.61 23.074C835.426 21.79 836.62 21.148 838.192 21.148C839.236 21.148 840.088 21.43 840.748 21.994C841.42 22.546 841.828 23.266 841.972 24.154H840.406C840.094 23.086 839.356 22.552 838.192 22.552C837.196 22.552 836.416 22.948 835.852 23.74C835.288 24.532 834.982 25.624 834.934 27.016H835.33C835.594 26.692 835.978 26.41 836.482 26.17C836.998 25.918 837.598 25.792 838.282 25.792ZM836.032 32.056C836.56 32.572 837.22 32.83 838.012 32.83C838.804 32.83 839.452 32.578 839.956 32.074C840.472 31.57 840.73 30.868 840.73 29.968C840.73 29.068 840.472 28.378 839.956 27.898C839.44 27.418 838.78 27.178 837.976 27.178C837.184 27.178 836.53 27.424 836.014 27.916C835.498 28.408 835.24 29.086 835.24 29.95C835.24 30.838 835.504 31.54 836.032 32.056ZM853.614 23.164L848.16 34H846.504L851.976 23.164V22.768H845.586V21.4H853.614V23.164Z" fill="#BCBCBC"/>
<path d="M60.0353 35V34.064H62.0273V27.704H61.7873L60.0233 28.892V27.788L61.7753 26.6H63.0833V34.064H64.9193V35H60.0353ZM69.6581 32.06C68.8901 32.06 68.2501 31.804 67.7381 31.292C67.2261 30.772 66.9701 30.116 66.9701 29.324C66.9701 28.5 67.2261 27.812 67.7381 27.26C68.2581 26.708 68.9541 26.432 69.8261 26.432C70.7781 26.432 71.5301 26.76 72.0821 27.416C72.6341 28.072 72.9101 29.12 72.9101 30.56C72.9101 31.912 72.6381 33.016 72.0941 33.872C71.5581 34.728 70.7661 35.156 69.7181 35.156C69.0221 35.156 68.4501 34.972 68.0021 34.604C67.5621 34.228 67.2941 33.744 67.1981 33.152H68.2421C68.4501 33.864 68.9421 34.22 69.7181 34.22C70.3821 34.22 70.9021 33.956 71.2781 33.428C71.6541 32.9 71.8581 32.172 71.8901 31.244H71.6261C71.4501 31.46 71.1901 31.652 70.8461 31.82C70.5101 31.98 70.1141 32.06 69.6581 32.06ZM71.1581 27.884C70.8061 27.54 70.3661 27.368 69.8381 27.368C69.3101 27.368 68.8741 27.536 68.5301 27.872C68.1941 28.208 68.0261 28.676 68.0261 29.276C68.0261 29.876 68.1981 30.336 68.5421 30.656C68.8861 30.976 69.3261 31.136 69.8621 31.136C70.3901 31.136 70.8261 30.972 71.1701 30.644C71.5141 30.316 71.6861 29.864 71.6861 29.288C71.6861 28.696 71.5101 28.228 71.1581 27.884ZM75.5954 26.6H80.5034V27.776L78.4034 29.576V29.828C79.1474 29.844 79.7474 30.076 80.2034 30.524C80.6674 30.972 80.8994 31.592 80.8994 32.384C80.8994 33.24 80.6234 33.916 80.0714 34.412C79.5194 34.908 78.8074 35.156 77.9354 35.156C77.0954 35.156 76.4074 34.92 75.8714 34.448C75.3354 33.976 75.0434 33.376 74.9954 32.648H76.0514C76.0994 33.12 76.2954 33.5 76.6394 33.788C76.9914 34.076 77.4234 34.22 77.9354 34.22C78.5194 34.22 78.9834 34.056 79.3274 33.728C79.6714 33.4 79.8434 32.952 79.8434 32.384C79.8434 31.824 79.6794 31.388 79.3514 31.076C79.0234 30.756 78.5554 30.596 77.9474 30.596C77.6514 30.596 77.4074 30.62 77.2154 30.668V29.552L79.2674 27.776V27.512H75.5954V26.6ZM85.7635 32.06C84.9955 32.06 84.3555 31.804 83.8435 31.292C83.3315 30.772 83.0755 30.116 83.0755 29.324C83.0755 28.5 83.3315 27.812 83.8435 27.26C84.3635 26.708 85.0595 26.432 85.9315 26.432C86.8835 26.432 87.6355 26.76 88.1875 27.416C88.7395 28.072 89.0155 29.12 89.0155 30.56C89.0155 31.912 88.7435 33.016 88.1995 33.872C87.6635 34.728 86.8715 35.156 85.8235 35.156C85.1275 35.156 84.5555 34.972 84.1075 34.604C83.6675 34.228 83.3995 33.744 83.3035 33.152H84.3475C84.5555 33.864 85.0475 34.22 85.8235 34.22C86.4875 34.22 87.0075 33.956 87.3835 33.428C87.7595 32.9 87.9635 32.172 87.9955 31.244H87.7315C87.5555 31.46 87.2955 31.652 86.9515 31.82C86.6155 31.98 86.2195 32.06 85.7635 32.06ZM87.2635 27.884C86.9115 27.54 86.4715 27.368 85.9435 27.368C85.4155 27.368 84.9795 27.536 84.6355 27.872C84.2995 28.208 84.1315 28.676 84.1315 29.276C84.1315 29.876 84.3035 30.336 84.6475 30.656C84.9915 30.976 85.4315 31.136 85.9675 31.136C86.4955 31.136 86.9315 30.972 87.2755 30.644C87.6195 30.316 87.7915 29.864 87.7915 29.288C87.7915 28.696 87.6155 28.228 87.2635 27.884Z" fill="#BCBCBC"/>
<path d="M1069.99 35V34.064H1071.98V27.704H1071.74L1069.98 28.892V27.788L1071.73 26.6H1073.04V34.064H1074.88V35H1069.99ZM1079.62 32.06C1078.85 32.06 1078.21 31.804 1077.7 31.292C1077.18 30.772 1076.93 30.116 1076.93 29.324C1076.93 28.5 1077.18 27.812 1077.7 27.26C1078.22 26.708 1078.91 26.432 1079.78 26.432C1080.74 26.432 1081.49 26.76 1082.04 27.416C1082.59 28.072 1082.87 29.12 1082.87 30.56C1082.87 31.912 1082.6 33.016 1082.05 33.872C1081.52 34.728 1080.72 35.156 1079.68 35.156C1078.98 35.156 1078.41 34.972 1077.96 34.604C1077.52 34.228 1077.25 33.744 1077.16 33.152H1078.2C1078.41 33.864 1078.9 34.22 1079.68 34.22C1080.34 34.22 1080.86 33.956 1081.24 33.428C1081.61 32.9 1081.82 32.172 1081.85 31.244H1081.58C1081.41 31.46 1081.15 31.652 1080.8 31.82C1080.47 31.98 1080.07 32.06 1079.62 32.06ZM1081.12 27.884C1080.76 27.54 1080.32 27.368 1079.8 27.368C1079.27 27.368 1078.83 27.536 1078.49 27.872C1078.15 28.208 1077.98 28.676 1077.98 29.276C1077.98 29.876 1078.16 30.336 1078.5 30.656C1078.84 30.976 1079.28 31.136 1079.82 31.136C1080.35 31.136 1080.78 30.972 1081.13 30.644C1081.47 30.316 1081.64 29.864 1081.64 29.288C1081.64 28.696 1081.47 28.228 1081.12 27.884ZM1090.43 27.776L1086.79 35H1085.69L1089.34 27.776V27.512H1085.08V26.6H1090.43V27.776ZM1098.08 27.776L1094.45 35H1093.34L1096.99 27.776V27.512H1092.73V26.6H1098.08V27.776Z" fill="#BCBCBC"/>
<path d="M304.416 34V32.596H307.404V23.056H307.044L304.398 24.838V23.182L307.026 21.4H308.988V32.596H311.742V34H304.416ZM318.85 29.59C317.698 29.59 316.738 29.206 315.97 28.438C315.202 27.658 314.818 26.674 314.818 25.486C314.818 24.25 315.202 23.218 315.97 22.39C316.75 21.562 317.794 21.148 319.102 21.148C320.53 21.148 321.658 21.64 322.486 22.624C323.314 23.608 323.728 25.18 323.728 27.34C323.728 29.368 323.32 31.024 322.504 32.308C321.7 33.592 320.512 34.234 318.94 34.234C317.896 34.234 317.038 33.958 316.366 33.406C315.706 32.842 315.304 32.116 315.16 31.228H316.726C317.038 32.296 317.776 32.83 318.94 32.83C319.936 32.83 320.716 32.434 321.28 31.642C321.844 30.85 322.15 29.758 322.198 28.366H321.802C321.538 28.69 321.148 28.978 320.632 29.23C320.128 29.47 319.534 29.59 318.85 29.59ZM321.1 23.326C320.572 22.81 319.912 22.552 319.12 22.552C318.328 22.552 317.674 22.804 317.158 23.308C316.654 23.812 316.402 24.514 316.402 25.414C316.402 26.314 316.66 27.004 317.176 27.484C317.692 27.964 318.352 28.204 319.156 28.204C319.948 28.204 320.602 27.958 321.118 27.466C321.634 26.974 321.892 26.296 321.892 25.432C321.892 24.544 321.628 23.842 321.1 23.326ZM334.812 29.644H336.54V31.048H334.812V34H333.264V31.048H327.036V29.248L332.598 21.4H334.812V29.644ZM328.692 29.644H333.282V23.182H332.886L328.692 29.248V29.644ZM343.782 29.59C342.63 29.59 341.67 29.206 340.902 28.438C340.134 27.658 339.75 26.674 339.75 25.486C339.75 24.25 340.134 23.218 340.902 22.39C341.682 21.562 342.726 21.148 344.034 21.148C345.462 21.148 346.59 21.64 347.418 22.624C348.246 23.608 348.66 25.18 348.66 27.34C348.66 29.368 348.252 31.024 347.436 32.308C346.632 33.592 345.444 34.234 343.872 34.234C342.828 34.234 341.97 33.958 341.298 33.406C340.638 32.842 340.236 32.116 340.092 31.228H341.658C341.97 32.296 342.708 32.83 343.872 32.83C344.868 32.83 345.648 32.434 346.212 31.642C346.776 30.85 347.082 29.758 347.13 28.366H346.734C346.47 28.69 346.08 28.978 345.564 29.23C345.06 29.47 344.466 29.59 343.782 29.59ZM346.032 23.326C345.504 22.81 344.844 22.552 344.052 22.552C343.26 22.552 342.606 22.804 342.09 23.308C341.586 23.812 341.334 24.514 341.334 25.414C341.334 26.314 341.592 27.004 342.108 27.484C342.624 27.964 343.284 28.204 344.088 28.204C344.88 28.204 345.534 27.958 346.05 27.466C346.566 26.974 346.824 26.296 346.824 25.432C346.824 24.544 346.56 23.842 346.032 23.326Z" fill="#BCBCBC"/>
<path d="M14 73L8 83L14 93" stroke="#BCBCBC" stroke-linecap="round" stroke-linejoin="round"/>
<path d="M1144 93L1150 83L1144 73" stroke="#BCBCBC" stroke-linecap="round" stroke-linejoin="round"/>
</svg>
