<svg width="1920" height="380" viewBox="0 0 1920 380" fill="none" xmlns="http://www.w3.org/2000/svg">
<g opacity="0.05" clip-path="url(#clip0_9581_336272)">
<path d="M1354.1 -161.056C1349.96 -158.545 1345.54 -156.414 1341.77 -153.445C1334.33 -147.586 1327.24 -141.317 1320.06 -135.142C1310.44 -126.883 1300.36 -119.319 1288.35 -114.818C1282.09 -112.465 1275.79 -111.707 1269.55 -114.834C1262.42 -118.419 1259.02 -124.704 1257.36 -132.142C1255.03 -142.564 1256.87 -152.813 1259.61 -162.762C1264.96 -182.249 1271.12 -201.515 1276.66 -220.954C1282.06 -239.904 1285.6 -259.249 1286.85 -278.91C1287.27 -285.7 1286.81 -292.696 1285.65 -299.408C1284.15 -308.077 1278.95 -314.157 1270.12 -316.605C1268.88 -316.952 1267.74 -317.663 1266.62 -318.8C1270.94 -321.595 1275.54 -322.527 1280.36 -321.721C1289.28 -320.253 1295.36 -314.836 1299.34 -307.019C1305.04 -295.807 1307.36 -283.711 1307.42 -271.235C1307.52 -248.337 1303.03 -226.181 1295.82 -204.547C1291.41 -191.361 1286.42 -178.348 1282.17 -165.115C1279.95 -158.182 1278.7 -150.95 1277.06 -143.828C1276.8 -142.722 1276.79 -141.538 1276.79 -140.401C1276.83 -133.31 1278.43 -131.984 1284.4 -135.6C1293.07 -140.859 1301.39 -146.749 1309.6 -152.702C1317.61 -158.514 1324.97 -165.225 1333.21 -170.642C1338.5 -174.116 1344.66 -176.69 1350.79 -178.348C1360.48 -180.97 1368 -176.28 1371.2 -166.694C1374.17 -157.819 1373.34 -148.833 1371.46 -139.911C1367.68 -121.909 1359.23 -105.959 1349.06 -90.9095C1340.96 -78.9078 1331.77 -67.6325 1323.85 -55.5203C1312.33 -37.9599 1309.78 -18.2834 1312.37 2.21427C1313 7.18866 1314.97 11.1682 1319.9 13.8686C1325.96 17.1848 1327.94 23.1699 1325.85 28.4443C1323.74 33.8293 1318.03 36.4034 1311.09 35.0926C1310.38 34.9663 1309.66 34.84 1308.99 34.6031C1267.83 20.1379 1232.05 -1.32306 1210.45 -41.1656C1203.37 -54.2253 1198.27 -68.0589 1194.53 -82.4136C1194.28 -83.3611 1193.96 -84.2928 1193.22 -86.7563C1192.16 -85.0034 1191.69 -83.9928 1191.01 -83.1558C1173.73 -62.2318 1153.17 -45.6347 1127.94 -35.1805C1088.46 -18.8203 1048.99 -2.42851 1009.52 13.9159C995.667 19.6483 982.007 25.6807 971.6 36.9718C968.41 40.4302 965.457 44.2044 963.025 48.2155C959.994 53.2215 960.973 57.1852 966.326 59.5382C970.937 61.5753 976.164 63.1861 981.122 63.2019C994.514 63.2334 1007.7 61.5279 1019.94 55.2586C1021.68 54.3585 1024.96 54.1058 1026.16 55.1481C1027.44 56.2535 1028.04 59.6645 1027.28 61.3069C1025.99 64.1494 1023.9 67.4182 1021.28 68.729C1003.47 77.5407 984.881 81.7729 965.173 75.7878C962.078 74.8403 959.078 73.1822 956.409 71.3188C946.334 64.2915 942.955 53.3478 949.018 42.6884C953.408 34.9663 959.362 27.9232 965.568 21.4801C974.522 12.163 985.828 5.95688 997.625 0.903524C1028.73 -12.4247 1059.97 -25.4528 1091.11 -38.7179C1103.51 -44.0081 1115.97 -49.2036 1128.05 -55.1886C1153.76 -67.9168 1174.16 -86.6142 1188.64 -111.47C1190.9 -115.355 1192 -119.935 1193.6 -124.198C1194.64 -127.009 1195.26 -130.041 1196.69 -132.615C1199.12 -136.99 1203.81 -138.869 1208.43 -137.874C1213.04 -136.895 1216.61 -133.279 1217.06 -128.336C1217.35 -125.241 1217.06 -122.019 1216.56 -118.94C1214.79 -108.265 1215.5 -97.8736 1218.83 -87.5143C1227.47 -60.5736 1241.45 -37.0439 1262.95 -18.3939C1268.31 -13.7512 1274.31 -9.86639 1280.17 -5.52367C1288.6 -36.2543 1306.76 -60.4946 1324.43 -84.9876C1337.43 -103.006 1349.08 -121.719 1354.15 -143.685C1355.38 -148.991 1355.44 -154.566 1356.03 -160.014C1355.38 -160.425 1354.73 -160.74 1354.1 -161.056Z" fill="#6049EB"/>
<path d="M1523.27 -113.036C1521.43 -111.642 1520 -110.473 1518.48 -109.408C1497.33 -94.5854 1483.54 -73.9018 1473.32 -50.8358C1465.12 -32.3027 1464.58 -12.7976 1469.51 6.89096C1470.44 10.5988 1469.88 14.6718 1470.82 18.3744C1472.36 24.3961 1474.48 30.2947 1476.53 36.1693C1476.89 37.1833 1478.07 37.9058 1479.09 39.0053C1479.75 38.0073 1480.19 37.6016 1480.32 37.1054C1483.22 26.627 1485.95 16.091 1488.98 5.65073C1497.57 -24.1398 1516.33 -43.4793 1547.07 -50.2903C1565.54 -54.3932 1584.19 -57.8245 1602.51 -62.5596C1640.78 -72.4672 1668.58 -96.0479 1685.8 -131.173C1698.94 -158.02 1696.32 -185.422 1682.36 -211.407C1669.86 -234.661 1652.09 -253.667 1630.01 -268.057C1592.81 -292.29 1531.19 -301.984 1480.08 -266.742C1446.26 -243.437 1435.66 -189.112 1462.73 -153.85C1473.9 -139.297 1487.7 -128.257 1504.53 -121.001C1510.56 -118.403 1516.63 -115.855 1523.27 -113.036ZM1498.1 -52.5246C1503.36 -63.4903 1508.32 -74.4369 1516.85 -83.3008C1528.27 -95.1614 1541.03 -104.798 1557 -109.735C1560.52 -110.828 1563.08 -113.176 1562.46 -117.378C1561.95 -120.862 1558.92 -123.132 1554.37 -122.834C1550.12 -122.57 1545.77 -121.975 1541.69 -120.784C1537.76 -119.646 1534.28 -119.937 1531.04 -122.119C1523.19 -127.394 1515.37 -132.708 1507.69 -138.225C1497.87 -145.27 1490.25 -154.318 1484.28 -164.813C1469.23 -191.322 1474.67 -223.191 1497.1 -241.603C1537.88 -275.084 1586.51 -267.631 1619.55 -245.372C1635.64 -234.514 1648.48 -220.145 1658.71 -203.591C1669.87 -185.558 1673.05 -165.895 1665.42 -146.256C1655.6 -121.038 1638.1 -102.056 1612.74 -91.1144C1597.84 -84.679 1581.92 -82.2846 1566.2 -79.0092C1542.09 -74.0085 1517.28 -70.7063 1498.1 -52.5246Z" fill="#6049EB"/>
<path d="M1990.31 163.857C1990.31 165.91 1990.3 167.568 1990.31 169.242C1990.42 176.838 1990.88 184.449 1990.6 192.045C1990.31 199.751 1985.38 205.184 1978.61 206.337C1971.91 207.474 1965.14 203.92 1962.57 196.814C1960.69 191.634 1959.66 186.013 1959.08 180.501C1956.66 157.572 1959.33 134.958 1964.3 112.581C1965.19 108.602 1967 104.701 1969.04 101.116C1971.54 96.7104 1975.58 94.168 1980.88 94.9259C1986.14 95.684 1989.95 99.1582 1990.53 104.085C1991.48 112.265 1991.7 120.619 1991.18 128.847C1990.88 133.521 1991.84 135.684 1996.28 137.343C2015.23 144.417 2034.67 148.255 2054.9 146.565C2084.78 144.07 2108.29 130.11 2125.27 105.522C2140.39 83.6191 2132.94 57.247 2108.65 45.8453C2095.77 39.7971 2081.95 37.9968 2067.91 38.6285C2024.63 40.5867 1985.54 54.7203 1951.37 81.2187C1929.17 98.4317 1911.16 119.372 1902.68 146.928C1897.06 165.199 1894.13 183.928 1897.73 202.973C1901.94 225.381 1913.09 243.494 1932.42 256.238C1959.09 273.83 1987.8 279.926 2019.02 271.825C2028.16 269.44 2037.24 266.708 2046.21 263.708C2049.15 262.729 2051.5 260.139 2054.36 258.781C2056.27 257.881 2058.77 257.202 2060.71 257.644C2065.72 258.781 2068.67 264.466 2067.04 269.567C2066.28 271.967 2064.96 274.351 2063.32 276.246C2061.18 278.71 2058.75 281.173 2055.96 282.768C2019.94 303.345 1982.65 312.046 1942.51 294.802C1911.1 281.3 1887.07 260.628 1874.88 227.766C1866 203.841 1867.17 179.727 1872.22 155.282C1880.09 117.303 1901.77 88.0408 1930.81 64.0058C1970.43 31.2222 2016.6 13.6934 2067.67 9.0664C2084 7.58199 2100.16 9.27169 2115.43 15.62C2142.46 26.8479 2158.13 47.2823 2162.44 76.118C2164.37 88.9883 2161.03 101.195 2155.32 112.755C2133.62 156.545 2086.66 182.017 2038.16 176.364C2022.54 174.548 2007.3 171.326 1992.95 164.646C1992.3 164.331 1991.59 164.22 1990.31 163.857Z" fill="#6049EB"/>
<path d="M1501.37 163.561C1502.02 150.084 1502.57 136.592 1503.33 123.114C1503.98 111.619 1507.53 100.93 1512.85 90.8079C1515.08 86.5607 1517.82 82.8232 1523.59 83.97C1524.06 84.0549 1524.59 83.8284 1525.09 83.6868C1553.6 75.5748 1582.13 67.4769 1610.62 59.3083C1615.93 57.7935 1621.14 55.9389 1626.4 54.2542C1628.97 53.4331 1631.52 52.527 1634.13 51.8758C1649.27 48.1525 1659.89 56.5618 1658.93 72.1488C1658.15 84.8477 1656.14 97.4476 1655.14 110.132C1653.32 133.067 1651.65 156.016 1650.3 178.978C1649.57 191.536 1645.3 195.967 1633.09 199.365C1605.14 207.109 1576.52 210.959 1548.03 215.631C1537.16 217.415 1526.12 218.491 1515.12 218.972C1505.28 219.411 1500.82 214.626 1500.21 204.801C1500.03 201.856 1499.93 198.883 1500.03 195.939C1500.37 185.151 1500.8 174.349 1501.2 163.561C1501.24 163.547 1501.3 163.547 1501.37 163.561ZM1629.55 79.015C1628 79.2132 1626.87 79.2557 1625.79 79.4963C1594.5 86.5749 1563.2 93.6818 1531.93 100.845C1531.17 101.015 1530.12 101.964 1529.99 102.686C1528.78 110.033 1527.29 117.381 1526.71 124.785C1525.2 144.138 1524.18 163.533 1522.81 182.9C1522.36 189.242 1521.4 195.542 1520.64 202.111C1521.95 201.984 1522.84 201.998 1523.69 201.814C1538.22 198.558 1552.82 195.585 1567.26 191.946C1584.43 187.614 1601.46 182.702 1618.56 178.044C1621.09 177.35 1622.74 176.345 1622.68 173.075C1622.17 144.577 1625.69 116.347 1628.65 88.0755C1628.96 85.2016 1629.23 82.2994 1629.55 79.015Z" fill="#6049EB"/>
<path d="M581.382 -85.2938C582.974 -85.2209 584.548 -85.0443 586.103 -84.7641C594.707 -83.2134 603.321 -77.8613 611.947 -68.7077C618.864 -61.3603 624.709 -52.8148 629.482 -43.0711C633.763 -34.1651 635.444 -28.3501 634.525 -25.6259C633.55 -22.5907 630.279 -17.5076 624.713 -10.3765C619.043 -3.26406 615.374 0.463023 613.707 0.804762C613.255 0.937358 612.77 0.95695 612.252 0.863537C611.63 0.75144 610.88 0.455825 610.004 -0.0233082C609.042 -0.624787 608.302 -0.972235 607.783 -1.06565L507.023 -19.2252C505.364 -19.5241 504.946 -21.9542 505.768 -26.5153C506.141 -28.5886 506.676 -30.3654 507.37 -31.8456C505.139 -37.2782 503.494 -43.8894 502.436 -51.6792C501.293 -59.5914 501.198 -66.1909 502.151 -71.4777C502.712 -74.5876 503.608 -76.8878 504.84 -78.3782C505.987 -79.9911 507.779 -81.3269 510.218 -82.3859C513.56 -83.71 515.66 -84.6695 516.516 -85.2644C516.761 -85.4344 518.469 -86.8926 521.639 -89.6391C523.531 -91.2248 525.404 -92.118 527.26 -92.3187C528.578 -92.5091 529.963 -92.4736 531.415 -92.212C539.604 -90.7361 547.538 -83.6871 555.217 -71.065C565.613 -80.6436 574.335 -85.3866 581.382 -85.2938ZM525.942 -67.19C525.49 -67.0574 525.18 -66.5246 525.012 -65.5917C524.582 -63.2074 525.153 -59.2513 526.726 -53.7235C528.298 -48.1956 530.066 -44.345 532.029 -42.1717L548.2 -39.2572C544.109 -46.8445 539.746 -53.5174 535.112 -59.2761C530.496 -65.1385 527.439 -67.7765 525.942 -67.19ZM572.977 -64.4927C572.595 -61.7788 573.069 -56.9841 574.398 -50.1086C575.946 -42.6587 577.787 -37.136 579.921 -33.5403L608.843 -28.3278C608.192 -35.4022 603.686 -43.0642 595.326 -51.3138C586.966 -59.5634 579.516 -63.9564 572.977 -64.4927Z" fill="#6049EB"/>
<path d="M1796.03 78.2338C1798.5 77.2752 1800.83 77.1685 1803.02 77.9136C1810.22 77.541 1818.24 78.5847 1827.06 81.0448C1836.51 83.7718 1842.22 86.9948 1844.2 90.7139C1844.5 91.2718 1844.73 91.8079 1844.88 92.3223C1845.76 97.1063 1846.58 102.575 1847.35 108.728C1848.48 119.82 1845.08 130.58 1837.15 141.009C1829.94 150.335 1820.06 158.339 1807.51 165.021C1792.17 173.189 1777.08 177.463 1762.25 177.842C1746.47 178.246 1735.85 173.876 1730.39 164.733C1728.27 161.206 1727.31 154.916 1727.5 145.863C1727.65 136.718 1729.08 129.99 1731.79 125.68C1734.42 121.419 1742.01 115.405 1754.59 107.638C1757.28 105.967 1760.31 104.829 1763.69 104.224C1767.72 103.509 1770.07 104.108 1770.73 106.023C1772 109.525 1773.15 114.161 1774.2 119.93C1775.41 126.92 1775.49 130.994 1774.44 132.152C1774.07 132.585 1773.7 132.901 1773.33 133.099C1772.5 133.544 1771.27 133.717 1769.67 133.617C1767.92 133.473 1766.63 133.624 1765.79 134.069C1761.73 135.634 1758.03 137.307 1754.68 139.089C1749.85 141.663 1746.8 144.003 1745.53 146.109C1752.59 149.51 1761.68 150.102 1772.79 147.886C1782.17 145.996 1791.97 142.329 1802.2 136.884C1810.1 132.677 1816.8 128.217 1822.28 123.506C1827.68 118.844 1830.5 115.191 1830.77 112.545C1830.83 111.318 1827.61 109.752 1821.1 107.845C1814.46 105.894 1809.51 105.008 1806.26 105.185C1806.12 105.141 1804.41 105.515 1801.13 106.306C1799.16 106.639 1797.74 106.44 1796.88 105.708C1795.48 104.424 1794.67 99.662 1794.46 91.421C1794.11 83.1366 1794.63 78.7409 1796.03 78.2338Z" fill="#6049EB"/>
<path d="M1424.96 150.977C1424.98 151.931 1425.05 154.204 1425.18 157.797C1425.31 159.691 1425.07 161.154 1424.45 162.186C1423.97 162.565 1423.1 162.833 1421.85 162.99C1418.4 163.42 1414 163.067 1408.66 161.93C1402.91 160.949 1398.9 159.433 1396.63 157.381C1395.67 156.545 1394.44 153.514 1392.94 148.287C1390.92 141.428 1388.89 135.79 1386.85 131.374C1382.94 132.393 1377.33 134.58 1370 137.937C1362.65 141.189 1357.93 143.743 1355.83 145.597C1354.82 150.288 1353.42 156.088 1351.63 162.999C1351.5 164.502 1351.3 165.906 1351.04 167.213C1350.9 168.611 1350.15 169.819 1348.79 170.838C1348.5 171.086 1348.04 171.25 1347.41 171.328C1344.91 171.641 1340.51 170.863 1334.23 168.994C1328.05 167.112 1324.8 165.766 1324.49 164.955C1323.89 163.544 1324.43 159.814 1326.11 153.765C1328.42 144.986 1329.71 139.623 1330 137.676C1327.53 135.756 1326.16 133.698 1325.88 131.503C1325.82 130.98 1325.8 130.399 1325.82 129.759C1325.88 128.478 1328.78 125.833 1334.55 121.823L1346.14 50.1564C1346.29 48.8629 1346.06 46.5569 1345.43 43.2384C1344.87 40.4424 1344.96 38.6263 1345.71 37.7903C1346.17 37.2024 1347.39 36.7845 1349.37 36.5366C1354.29 35.9232 1361.45 36.3031 1370.85 37.6762C1380.26 39.0493 1385.97 40.6179 1388 42.382C1390.07 53.9056 1394.6 71.0148 1401.57 93.7097C1410.38 121.696 1418.17 140.785 1424.96 150.977ZM1378.09 108.424C1375.91 102.009 1374.53 97.7757 1373.96 95.7244C1371.94 88.865 1370.24 81.6986 1368.89 74.2252C1367.44 79.6078 1365.87 87.022 1364.18 96.4677C1362.34 106.358 1361.46 112.518 1361.55 114.948C1363.43 113.864 1368.95 111.689 1378.09 108.424Z" fill="#6049EB"/>
<path d="M781.655 -86.9102C780.755 -76.4877 779.902 -66.681 778.971 -56.069C781.024 -57.2376 782.461 -58.0587 783.898 -58.8957C791.162 -63.0805 798.71 -66.4915 807.19 -67.2495C820.486 -68.4497 827.324 -61.5487 825.95 -48.3626C824.308 -32.713 817.691 -19.1164 808.027 -7.08309C794.099 10.272 785.319 30.0117 779.587 51.2673C778.323 55.9417 777.597 60.8213 777.281 65.6536C776.949 70.928 778.481 72.3966 783.645 71.3386C793.167 69.3962 803.132 68.1171 811.912 64.2639C824.971 58.5315 837.352 51.141 849.622 43.7821C856.981 39.3762 862.413 32.7279 865.54 24.5162C868.051 17.9152 867.119 15.6096 861.371 11.567C859.697 10.3984 858.734 8.21909 857.439 6.51359C859.334 5.47134 861.134 3.81322 863.155 3.4658C879.01 0.749629 889.653 10.3668 888.437 26.3954C887.521 38.5076 882.342 49.0249 873.562 57.1103C848.974 79.7398 820.265 93.6207 786.535 96.0211C785.682 96.0842 784.814 96.0526 783.945 96.0526C765.264 95.9895 753.846 84.9668 754.431 66.2063C754.683 58.1683 756.499 49.9566 758.9 42.2345C765.753 20.1734 775.733 -0.324217 790.04 -18.7374C795.504 -25.7647 799.152 -34.229 803.479 -42.1249C804.332 -43.6883 804.584 -45.5833 805.39 -48.2205C802.895 -47.5099 800.984 -47.3993 799.547 -46.4992C792.915 -42.2986 786.329 -38.0033 779.918 -33.4868C777.486 -31.7655 775.528 -29.381 773.365 -27.2807C768.959 -23.0169 764.79 -21.9431 760.589 -23.9802C756.31 -26.0489 754.794 -30.3601 755.331 -36.503C757.242 -57.9166 759.089 -79.346 760.668 -100.791C761.347 -110.061 767.364 -115.209 776.286 -112.698C800.163 -105.971 823.329 -109.003 845.769 -118.099C868.761 -127.416 889.811 -140.255 908.793 -156.331C911.493 -158.62 913.956 -161.21 916.878 -164.005C915.188 -165.016 914.02 -165.711 912.867 -166.39C914.478 -172.564 921.663 -175.296 927.6 -171.87C932.875 -168.838 935.386 -163.879 934.328 -158.083C933.475 -153.409 931.864 -148.466 929.164 -144.629C925.168 -138.944 920.589 -133.275 915.093 -129.106C888.201 -108.703 859.144 -92.611 825.256 -86.926C812.575 -84.7941 799.879 -84.3993 787.119 -86.2469C785.508 -86.5154 783.819 -86.6734 781.655 -86.9102Z" fill="#6049EB"/>
<path d="M45.3694 -3.85253C56.9353 -11.9038 70.059 -14.9925 84.7405 -13.1186C92.9398 -12.0802 105.873 -8.20608 123.539 -1.49627C140.175 4.81376 152.808 8.1658 161.436 8.55986C167.961 8.77485 171.599 10.0563 172.351 12.4041C174.221 18.0812 172.089 29.1414 165.956 45.5846C165.613 46.3782 164.991 47.0345 164.089 47.5535C161.385 49.1107 157.769 49.6043 153.24 49.0343C147.617 48.3003 134.523 44.3202 113.958 37.0942C93.3082 29.7191 78.1751 25.3243 68.5591 23.91C53.2336 21.6124 43.8551 24.4313 40.4237 32.3665C38.4292 36.892 39.1071 42.0634 42.4573 47.8808C48.3847 58.173 60.8048 68.7981 79.7176 79.7561C80.0396 79.9679 80.3724 80.3721 80.7161 80.9688C82.0046 83.2062 81.4589 87.9898 79.079 95.3195C77.085 101.235 74.7473 106.554 72.066 111.276C70.8005 113.594 68.3325 114.519 64.6621 114.051C60.9059 113.433 54.3582 109.358 45.0191 101.825C34.2845 92.9106 26.1253 83.6057 20.5415 73.9101C15.7309 65.5569 13.3887 57.6692 13.515 50.247C13.9369 28.75 24.555 10.7168 45.3694 -3.85253ZM196.227 -24.2887C196.656 -24.933 197.171 -25.4282 197.772 -25.7743C198.974 -26.4663 201.185 -26.4484 204.404 -25.7204C207.474 -24.9058 209.813 -24.6641 211.423 -24.9952C215.029 -25.6812 218.709 -26.4105 222.465 -27.183C228.067 -28.224 231.297 -27.3036 232.157 -24.4218C234.413 -17.3783 233.204 -5.75726 228.531 10.4414C228.209 11.6198 227.587 12.2761 226.664 12.4103C225.891 12.458 225.119 12.5057 224.346 12.5534C221.041 13.0664 217.693 13.5048 214.302 13.8687C209.923 14.6024 206.35 15.8657 203.582 17.6585C201.715 18.9323 199.623 18.9456 197.304 17.6986C194.75 16.3889 192.785 14.5407 191.411 12.1541C189.435 8.72333 189.24 2.47947 190.825 -6.57751C192.26 -15.548 194.061 -21.4517 196.227 -24.2887Z" fill="#6049EB"/>
<path d="M1097.14 -171.649C1097.07 -155.589 1092.62 -140.824 1084.01 -127.29C1074.7 -112.604 1063.19 -99.9073 1049.15 -89.5953C1027.5 -73.6772 1004.3 -60.6649 978.386 -53.0375C961.047 -47.9367 943.739 -42.6307 926.147 -38.5565C894.296 -31.1659 868.035 -14.7268 845.626 8.55023C840.999 13.3667 837.099 18.5622 835.472 25.2421C834.604 28.8268 832.472 31.4956 828.366 31.6219C824.197 31.7483 821.102 29.4742 820.423 25.7158C819.586 21.1836 819.27 16.304 820.06 11.7875C821.718 2.23354 827.04 -5.64653 833.119 -13.0686C853.901 -38.4459 879.783 -56.0853 911.414 -65.1655C930.158 -70.5505 948.887 -76.0144 967.584 -81.5731C990.403 -88.3635 1011.06 -99.5283 1030.01 -113.741C1048.52 -127.622 1062.38 -144.961 1067.77 -168.049C1068.35 -170.559 1068.74 -173.118 1069.01 -175.692C1070.86 -193.536 1064.45 -206.912 1048.15 -215.424C1034.79 -222.404 1021.2 -227.504 1005.77 -224.725C1004.96 -224.583 1004.02 -225.151 1003.15 -225.388C1003.89 -226.431 1004.39 -227.852 1005.4 -228.483C1018.67 -236.79 1032.91 -237.564 1047.63 -233.458C1051.9 -232.273 1056.1 -230.71 1060.14 -228.91C1085.07 -217.714 1097.12 -198.985 1097.14 -171.649Z" fill="#6049EB"/>
<path d="M278.23 192.209C276.663 188.277 275.136 184.45 273.644 180.62C272.92 178.747 272.064 176.894 271.627 174.953C270.867 171.569 271.63 168.5 274.975 166.914C278.278 165.351 281.552 166.29 283.241 169.362C286.884 175.991 290.839 182.629 293.223 189.752C298.304 204.962 302.519 220.467 306.958 235.885C307.635 238.198 307.844 240.677 307.918 243.106C307.953 244.186 307.323 245.991 306.591 246.232C305.704 246.521 303.925 245.841 303.341 245.009C301.037 241.734 298.724 238.411 297.028 234.801C292.937 226.112 289.185 217.254 285.267 208.488C284.865 207.592 284.338 206.764 283.615 205.449C281.994 206.827 280.583 208.161 279.045 209.331C263.939 220.697 247.086 228.033 228.3 230.178C200.591 233.335 181.444 220.073 174.799 193.002C172.901 185.287 171.462 177.032 172.09 169.19C175.747 123.752 195.295 88.1751 238.34 68.8575C257.462 60.2746 277.31 58.519 296.953 68.5531C322.004 81.3449 333.889 107.393 325.78 134.339C322.913 143.844 317.917 152.753 313.605 161.791C312.481 164.138 312.21 165.909 312.864 168.541C317.047 185.199 320.929 201.932 324.762 218.674C325.257 220.853 325.068 223.263 324.774 225.515C324.267 229.38 321.175 230.737 318.383 228.019C315.555 225.266 312.724 222.083 311.159 218.547C303.277 200.733 295.443 182.874 288.34 164.74C283.945 153.532 289.849 147.422 301.974 150.073C306.346 140.029 311.01 130.024 311.047 118.651C311.11 93.7842 289.857 74.8865 265.022 77.7976C249.037 79.6642 235.088 86.4483 224.004 97.8207C202.351 119.994 191.2 146.685 193.162 177.989C193.568 184.433 195.527 190.979 197.891 197.049C201.173 205.48 207.91 210.229 217.106 210.634C221.376 210.828 225.772 210.827 229.938 210.014C246.799 206.693 262.517 200.144 278.23 192.209Z" fill="#6049EB"/>
<path d="M480.842 24.642C474.052 32.6011 467.783 40.1653 461.245 47.4927C459.998 48.8823 457.455 50.3983 456.018 50.0035C454.297 49.5298 451.96 47.0347 451.991 45.4555C452.039 42.5025 452.986 39.1704 454.644 36.7227C458.339 31.2903 462.793 26.3633 466.788 21.1205C469.915 17.0146 472.804 12.7351 475.789 8.51868C480.495 1.83877 487.38 1.91773 492.544 8.13966C501.766 19.257 511.336 30.0902 520.89 40.9391C521.632 41.7761 523.432 42.2656 524.569 42.0603C556.31 36.2648 588.114 30.7692 619.713 24.3104C636.973 20.7889 653.87 15.5302 670.956 11.1875C675.678 9.98733 680.495 8.9135 685.327 8.50291C688.785 8.20287 692.654 8.31341 695.781 9.59254C703.74 12.8614 705.603 23.1102 699.539 29.2848C697.707 31.1482 695.196 32.759 692.701 33.5012C672.362 39.5652 652.243 46.8136 631.509 50.951C600.747 57.0782 569.528 60.9472 538.497 65.7795C533.539 66.5533 528.58 67.3271 523.637 68.1956C514.968 69.7116 509.867 67.1692 505.082 59.9208C497.329 48.2507 489.228 36.8175 480.842 24.642Z" fill="#6049EB"/>
<path d="M14.1974 235.391C17.1662 225.916 19.0454 216.441 23.1196 208.055C26.4832 201.154 25.2515 197.396 19.9455 192.674C2.48009 177.151 -14.48 161.059 -31.9454 145.536C-35.2932 142.551 -37.1567 139.867 -36.5408 135.445C-36.2723 133.471 -36.4934 131.45 -36.4934 128.591C-34.8826 129.539 -33.7141 130.155 -32.6245 130.897C-9.86894 146.089 10.8811 163.649 29.9573 183.247C33.2419 186.626 36.7004 189.863 40.1271 193.101C44.075 196.812 44.8488 201.612 43.1117 206.176C32.9578 232.943 31.7734 261.4 27.0517 289.177C25.5673 297.91 21.5562 302.3 12.6498 302.79C-3.07853 303.643 -18.57 301.905 -33.7141 297.484C-34.8353 297.152 -36.3198 295.573 -36.3829 294.499C-36.683 289.809 -36.5092 285.103 -36.5092 279.939C-30.7453 280.429 -25.3604 280.981 -19.9755 281.313C-12.3956 281.787 -4.784 282.055 2.79593 282.497C5.29099 282.64 6.23836 281.739 6.61735 279.181C7.77014 271.538 9.12836 263.895 10.7233 256.331C11.4181 253.078 10.8653 251.293 7.47016 250.346C-5.88946 246.603 -19.2175 242.702 -32.5613 238.865C-33.7772 238.518 -35.0248 238.265 -36.3671 237.949C-36.3671 234.396 -36.3671 230.985 -36.3671 226.974C-19.0438 227.527 -2.27319 230.637 14.1974 235.391Z" fill="#6049EB"/>
<path d="M887.71 96.5419C890.063 93.7942 892.779 90.2884 895.842 87.1143C898.953 83.9086 902.712 81.6504 907.402 83.2453C911.981 84.8087 913.166 88.7882 913.829 93.0993C914.713 98.9107 916.071 104.659 916.592 110.486C916.829 113.234 916.34 116.661 914.84 118.84C912.234 122.582 906.502 121.619 904.086 117.292C902.712 114.829 902.001 111.986 900.848 108.907C900.311 110.202 899.853 111.276 899.411 112.334C895.842 120.798 887.678 122.661 880.556 116.724C878.172 114.734 875.645 112.855 872.96 111.323C871.918 110.739 869.802 110.723 869.013 111.418C868.302 112.034 868.255 114.197 868.76 115.287C870.292 118.65 871.697 122.282 874.082 124.999C885.641 138.153 898.811 148.86 916.924 151.655C923.225 152.634 925.878 159.44 921.504 164.336C919.135 167.005 915.282 169.105 911.76 169.831C901.496 171.947 891.689 169.689 883.035 163.894C868.523 154.166 857.816 141.075 850.694 125.125C849.478 122.409 848.784 119.408 848.294 116.455C845.815 101.627 856.948 89.8936 871.871 91.9939C877.114 92.7519 882.183 94.9312 887.71 96.5419Z" fill="#6049EB"/>
<path d="M1704.19 286C1686.85 285.763 1671.25 273.272 1667.74 256.785C1666.13 249.19 1667.68 241.973 1671.93 235.861C1675.97 230.05 1680.48 224.033 1686.14 220.022C1695.77 213.216 1706.35 207.72 1716.76 202.067C1720.36 200.125 1724.43 200.741 1727.37 204.057C1730.31 207.357 1730.01 211.116 1728.25 214.906C1727.83 215.822 1727.21 216.674 1727.01 217.638C1725.66 224.191 1723.82 230.713 1723.33 237.33C1722.81 244.262 1725.79 250.074 1731.98 254.022C1734.48 255.617 1736.86 257.622 1738.77 259.88C1742.47 264.239 1741.36 268.898 1736.8 272.372C1728.85 278.404 1720.78 283.994 1710.57 285.337C1708.47 285.605 1706.32 285.779 1704.19 286ZM1707.01 225.17C1699.51 229.734 1693.01 234.266 1687.92 240.567C1680.09 250.232 1681.98 259.77 1692.91 265.85C1698.09 268.74 1703.7 269.545 1709.52 268.913C1712.05 268.645 1714.56 268.061 1717.8 267.508C1704.95 255.332 1705.12 240.851 1707.01 225.17Z" fill="#6049EB"/>
<path d="M1033.19 182C1015.85 181.763 1000.25 169.272 996.74 152.785C995.13 145.19 996.677 137.973 1000.93 131.861C1004.97 126.05 1009.48 120.033 1015.14 116.022C1024.77 109.216 1035.35 103.72 1045.76 98.067C1049.36 96.1246 1053.43 96.7405 1056.37 100.057C1059.31 103.357 1059.01 107.116 1057.25 110.906C1056.83 111.822 1056.21 112.674 1056.01 113.638C1054.66 120.191 1052.82 126.713 1052.33 133.33C1051.81 140.262 1054.79 146.074 1060.98 150.022C1063.48 151.617 1065.86 153.622 1067.77 155.88C1071.47 160.239 1070.36 164.898 1065.8 168.372C1057.85 174.404 1049.78 179.994 1039.57 181.337C1037.47 181.605 1035.32 181.779 1033.19 182ZM1036.01 121.17C1028.51 125.734 1022.01 130.266 1016.92 136.567C1009.09 146.232 1010.98 155.77 1021.91 161.85C1027.09 164.74 1032.7 165.545 1038.52 164.913C1041.05 164.645 1043.56 164.061 1046.8 163.508C1033.95 151.332 1034.12 136.851 1036.01 121.17Z" fill="#6049EB"/>
<path d="M1124.25 63.9695C1111.52 65.1539 1099.71 66.3067 1087.87 67.3332C1083.3 67.728 1078.71 68.1386 1074.15 68.0596C1069.28 67.9648 1066.5 65.5645 1066.06 61.9008C1065.62 58.1582 1067.59 55.063 1072.23 53.7997C1077.6 52.331 1083.13 51.4309 1088.64 50.4992C1101.92 48.2568 1115.22 46.1565 1128.5 43.9772C1129.07 43.8825 1129.62 43.7088 1130.17 43.614C1135.68 42.6981 1141.21 42.1138 1145.22 47.1356C1149.16 52.0468 1147.26 57.1001 1145.16 62.1377C1141.65 70.6021 1138.26 79.1138 1134.88 87.6255C1134.2 89.331 1133.88 91.1629 1133.19 93.7369C1136.17 94.1791 1138.78 94.8897 1141.39 94.9055C1148.55 94.9687 1155.71 94.6213 1162.88 94.6686C1165.86 94.6844 1168.94 94.8424 1171.78 95.6477C1175.87 96.8005 1178.24 99.8641 1178.5 104.191C1178.76 108.707 1176.55 111.929 1172.53 113.745C1170.87 114.503 1168.91 115.103 1167.14 114.977C1155.44 114.235 1143.74 113.398 1132.07 112.276C1129.31 112.008 1126.53 110.792 1123.95 109.56C1117.15 106.307 1113.53 100.48 1115.11 93.1053C1116.86 84.8936 1119.88 76.9503 1122.39 68.8966C1122.86 67.4437 1123.48 66.0224 1124.25 63.9695Z" fill="#6049EB"/>
<path d="M1744.13 -79.2163C1743.76 -62.0202 1739.43 -45.4997 1735.1 -29.0107C1730.77 -12.5217 1726.08 3.87139 1721.21 20.2008C1720.09 23.9242 1718.11 27.6607 1715.6 30.6217C1712.46 34.3231 1707.98 33.3459 1706.64 28.6673C1705.53 24.7791 1704.98 20.4188 1705.49 16.4409C1708.42 -5.848 1711.85 -28.0722 1714.88 -50.345C1716.49 -62.247 1717.79 -74.2132 1718.84 -86.1801C1719.54 -94.2001 1723.92 -99.6505 1730.82 -99.9449C1737.77 -100.239 1743.41 -94.8051 1744.12 -86.9227C1744.35 -84.3953 1744.14 -81.8062 1744.13 -79.2163Z" fill="#6049EB"/>
<path d="M1553.55 47.4072C1576.22 46.1597 1594.52 36.1635 1609.68 19.9138C1615.94 13.2024 1620.22 5.21174 1621.97 -3.8685C1623.93 -13.9436 1620.68 -22.2501 1612.53 -28.5194C1609.37 -30.9513 1607.99 -30.3828 1606.32 -26.8455C1594.43 -1.43657 1575.76 16.3923 1548.57 24.6987C1545.7 25.5831 1542.76 26.3253 1539.98 27.4465C1535.2 29.3731 1532.68 33.0684 1533.02 37.2216C1533.36 41.6275 1536.46 45.149 1541.61 46.1439C1545.52 46.9335 1549.57 47.0282 1553.55 47.4072Z" fill="#6049EB"/>
<path d="M1431.3 -19.3606C1428.93 -6.21933 1426.66 6.9332 1424.16 20.0442C1423.27 24.668 1420.53 27.1321 1416.98 27.3038C1413.63 27.4619 1410.94 25.311 1409.45 20.9187C1407.72 15.7919 1406.48 10.4851 1404.49 5.46624C1401.5 -2.10229 1398.04 -9.48777 1394.78 -16.9499C1394.09 -18.5237 1393.16 -20.0257 1392.7 -21.6729C1391.41 -26.2946 1393.81 -30.237 1398.47 -31.4186C1399.14 -31.5885 1399.82 -31.782 1400.5 -31.7724C1406.41 -31.7031 1411.9 -33.2511 1417.46 -35.2761C1426.12 -38.427 1431.85 -34.0661 1432.15 -24.7831C1432.2 -22.9448 1432.06 -21.107 1432 -19.258C1431.76 -19.3011 1431.52 -19.3317 1431.3 -19.3606Z" fill="#6049EB"/>
<path d="M1205.12 2.66526C1202.76 15.8065 1200.48 28.9591 1197.98 42.0701C1197.1 46.6939 1194.35 49.158 1190.81 49.3297C1187.45 49.4878 1184.77 47.3369 1183.27 42.9446C1181.54 37.8177 1180.3 32.511 1178.32 27.4921C1175.32 19.9236 1171.86 12.5381 1168.6 5.07598C1167.91 3.50218 1166.99 2.00023 1166.52 0.352999C1165.24 -4.26868 1167.64 -8.21114 1172.29 -9.39275C1172.96 -9.56266 1173.65 -9.75616 1174.32 -9.7465C1180.24 -9.67726 1185.72 -11.2252 1191.29 -13.2503C1199.94 -16.4012 1205.68 -12.0402 1205.97 -2.75721C1206.03 -0.918898 1205.88 0.918863 1205.82 2.7679C1205.58 2.72474 1205.35 2.69421 1205.12 2.66526Z" fill="#6049EB"/>
<path d="M1849.44 -9.64174C1863.34 -9.64174 1877.25 -9.65754 1891.15 -9.62595C1893.15 -9.62595 1895.16 -9.45224 1897.15 -9.1522C1902.44 -8.36261 1904.41 -3.75143 1900.62 0.054365C1898.13 2.54945 1894.58 4.66555 1891.17 5.43934C1881.96 7.49226 1872.63 9.4662 1863.25 10.161C1839.53 11.9139 1815.76 13.0351 1792.01 14.2195C1787.6 14.4406 1783.12 13.9668 1778.71 13.4773C1773.85 12.9246 1771.05 10.3032 1770.63 6.51315C1770.19 2.62839 1772.16 -0.924738 1776.96 -1.9512C1787.57 -4.20941 1798.28 -6.37287 1809.06 -7.35195C1822.47 -8.5837 1835.97 -8.59948 1849.44 -9.13639C1849.44 -9.29431 1849.44 -9.46803 1849.44 -9.64174Z" fill="#6049EB"/>
<path d="M319.466 -29.2337C317.066 -12.526 314.728 4.1816 312.186 20.8734C311.744 23.7949 310.686 26.7322 309.391 29.401C307.085 34.1069 302.332 36.3809 297.689 35.5124C292.699 34.5649 288.925 30.7433 288.988 25.2478C289.051 19.1364 290.109 13.025 290.741 6.91357C292.699 -11.8786 294.641 -30.6865 296.647 -49.4787C296.931 -52.1633 297.294 -54.8952 298.052 -57.4851C299.11 -61.0382 301.605 -63.4228 305.38 -63.9123C309.17 -64.4019 312.612 -62.8227 313.986 -59.4906C315.976 -54.6741 317.492 -49.526 318.234 -44.3779C318.945 -39.4667 318.392 -34.3818 318.392 -29.36C318.739 -29.3284 319.103 -29.2811 319.466 -29.2337Z" fill="#6049EB"/>
<path d="M1934 60.233C1943.27 60.1382 1948.64 68.95 1944.66 76.7195C1943.36 79.2462 1941.36 81.3939 1939.79 83.7784C1928.47 101.181 1917.18 118.631 1905.84 136.033C1901.71 142.397 1897.51 148.73 1893.16 154.952C1891.79 156.91 1890.04 158.71 1888.13 160.179C1885.39 162.279 1881.82 162.848 1879.46 160.352C1877.64 158.442 1876.27 155.094 1876.49 152.536C1876.77 149.282 1878.54 145.998 1880.25 143.061C1887.18 131.185 1894.44 119.499 1901.36 107.608C1908.99 94.4852 1916.41 81.2359 1923.8 67.9867C1926.28 63.565 1929.4 60.3909 1934 60.233Z" fill="#6049EB"/>
<path d="M-56.9533 24.4371C-37.2297 31.2433 -18.5484 38.5391 -4.57294 53.8728C-1.01984 57.7734 1.79121 62.7162 3.68619 67.6748C5.67592 72.8703 4.53877 78.271 -0.23027 82.0137C-4.87298 85.6458 -9.9104 85.1089 -14.7584 82.4717C-18.1378 80.624 -21.3593 78.4448 -24.486 76.1866C-34.7347 68.8434 -44.9202 61.4529 -55.0584 53.9676C-56.0217 53.257 -56.8587 51.7094 -56.8745 50.525C-57.0166 42.0922 -56.9533 33.6594 -56.9533 24.4371Z" fill="#6049EB"/>
<path d="M1787.85 230.612C1784.53 224.256 1788.12 218.231 1795.36 219.033C1803.87 219.972 1812.27 221.83 1820.69 223.468C1825.73 224.443 1830.7 225.806 1835.73 226.837C1843.83 228.477 1846.89 236.84 1841.86 243.825C1839.43 247.189 1836.69 250.365 1834.74 253.982C1833.21 256.827 1832.72 260.205 1831.68 263.331C1829.06 271.273 1820.4 273.385 1815.24 266.917C1806.07 255.394 1797.37 243.496 1788.49 231.739C1788.24 231.387 1788.06 230.985 1787.85 230.612Z" fill="#6049EB"/>
<path d="M-56.9537 -18.9274C-42.2676 -18.8168 -28.1974 -17.6166 -14.7747 -12.7212C-10.3215 -11.0947 -6.23144 -8.11005 -2.48886 -5.10962C-0.262266 -3.32516 1.44328 -0.482651 2.5171 2.21773C6.18073 11.5033 -0.546468 19.7623 -10.3372 17.8515C-15.3589 16.8725 -20.207 14.9774 -25.055 13.2404C-34.4825 9.86093 -43.7994 6.18145 -53.2427 2.86519C-55.9115 1.93348 -57.2064 0.891243 -57.0327 -2.20393C-56.7327 -7.6047 -56.9537 -13.0213 -56.9537 -18.9274Z" fill="#6049EB"/>
<path d="M718.18 62.0003C722.001 62.095 724.559 63.5479 725.333 67.2116C726.091 70.7647 724.228 73.9073 720.232 74.9969C712.226 77.1919 704.125 79.0238 696.071 81.0609C676.632 85.9721 657.208 90.9149 637.769 95.8104C635.274 96.442 632.716 96.7736 630.205 97.3422C625.483 98.4318 621.346 96.3473 620.256 92.2572C619.104 87.9461 621.741 83.9982 626.747 82.8454C640.975 79.5607 655.219 76.355 669.447 73.0703C684.512 69.5961 699.577 66.0904 714.658 62.6162C715.89 62.3477 717.169 62.1898 718.18 62.0003Z" fill="#6049EB"/>
<path d="M379.209 72.1282C379.84 68.1645 380.472 62.4795 381.814 56.9682C382.225 55.3101 384.357 53.2887 386.078 52.8466C393.358 50.9831 400.764 49.5935 408.155 48.1564C411.945 47.4142 415.766 46.6562 419.604 46.3877C427.468 45.8192 431.905 52.2465 428.684 59.4633C426.189 65.0535 423.472 70.5649 420.788 76.0762C419.367 78.9819 416.793 80.7663 413.792 79.6451C408.502 77.6553 403.654 79.3609 398.68 80.4663C395.743 81.1137 392.9 82.0928 389.963 82.7561C382.557 84.3984 379.114 81.5085 379.209 72.1282Z" fill="#6049EB"/>
<path d="M129.987 280.093C130.892 277.179 131.349 274.013 132.851 271.423C133.933 269.561 136.321 268.284 138.355 267.132C139.026 266.754 140.892 267.24 141.414 267.906C143.233 270.226 145.239 272.619 146.19 275.308C147.814 279.913 148.877 284.725 149.81 289.52C150.612 293.648 148.625 297.093 145.258 298.424C141.741 299.818 137.823 298.649 135.211 295.267C131.797 290.833 130.808 285.661 129.987 280.093Z" fill="#6049EB"/>
<path d="M416.987 154.805C415.456 149.689 414.682 144.13 412.139 139.582C410.307 136.313 406.265 134.071 402.822 132.049C401.685 131.386 398.527 132.239 397.643 133.408C394.563 137.482 391.168 141.682 389.557 146.404C386.81 154.489 385.01 162.938 383.43 171.355C382.072 178.603 385.436 184.652 391.137 186.989C397.09 189.437 403.722 187.384 408.144 181.446C413.924 173.661 415.598 164.58 416.987 154.805Z" fill="#6049EB"/>
<path d="M1741.49 57.9155C1741.84 46.6402 1750.01 38.9339 1761.08 39.0602C1770.91 39.1707 1782.28 49.0406 1781.56 60.4896C1780.83 71.9544 1772.59 79.8344 1760.93 79.487C1750.07 79.187 1741.15 69.2698 1741.49 57.9155Z" fill="#6049EB"/>
<path d="M1229.01 100.822C1227.02 111.577 1224.86 123.405 1222.65 135.217C1221.62 140.697 1220.52 146.176 1219.43 151.64C1219.25 152.477 1219.05 153.314 1218.78 154.135C1217.23 158.762 1213.71 161.036 1209.71 160.01C1206.02 159.047 1203.7 155.32 1204.46 150.866C1206.37 139.717 1208.44 128.6 1210.5 117.499C1211.77 110.74 1212.94 103.965 1214.53 97.3009C1215.62 92.7371 1219.11 90.5105 1223.03 91.1105C1226.82 91.6791 1229.2 95.1059 1229.01 100.822Z" fill="#6049EB"/>
<path d="M469.323 103.648C469.338 95.1833 476.65 90.6353 483.266 94.2516C485.667 95.5623 487.704 97.8521 489.409 100.063C496.768 109.57 501.853 120.261 505.406 131.725C506.559 135.452 506.385 138.847 502.895 141.327C499.8 143.522 495.915 143.064 492.647 140.19C492.22 139.811 491.762 139.432 491.446 138.958C484.482 128.646 477.487 118.35 470.649 107.943C469.686 106.459 469.559 104.437 469.323 103.648Z" fill="#6049EB"/>
<path d="M129.53 72.8333C137.209 75.2938 142.25 78.1445 145.696 83.2334C151.061 91.1724 148.349 100.893 139.279 103.945C130.066 107.041 120.907 106.326 112.995 99.8476C108.083 95.8382 105.694 90.5251 107.114 84.2353C108.479 78.2089 112.952 74.6805 118.759 73.5024C122.875 72.6571 127.211 72.9491 129.53 72.8333ZM128.73 83.9635C127.285 83.9861 124.697 83.703 122.234 84.1727C117.926 84.9996 116.921 87.9674 120.167 90.7471C122.694 92.9099 125.815 94.6264 128.946 95.7571C132.198 96.9204 137.407 94.6181 137.774 92.2644C138.419 88.1379 135.233 86.6653 132.253 85.2153C131.504 84.8355 130.661 84.6267 128.73 83.9635Z" fill="#6049EB"/>
<path d="M684.759 158.922C690.946 151.181 696.419 146.635 703.748 144.89C715.177 142.18 725.09 149.508 724.59 161.238C724.077 173.15 719.234 183.347 708.353 189.613C701.613 193.507 694.493 193.942 687.93 189.585C681.645 185.404 679.581 178.741 680.788 171.569C681.632 166.48 683.871 161.633 684.759 158.922ZM697.123 164.669C696.514 166.336 695.052 169.183 694.506 172.212C693.557 177.513 696.506 179.954 701.109 177.437C704.691 175.475 708.024 172.64 710.693 169.539C713.452 166.313 713.111 159.339 710.583 157.896C706.152 155.365 703.069 158.382 700.102 161.171C699.339 161.865 698.73 162.741 697.123 164.669Z" fill="#6049EB"/>
<path d="M1690.13 73.9767C1690.33 71.8944 1690.38 70.6322 1690.57 69.3957C1691.57 63.15 1696.21 58.8723 1701.84 58.9529C1707.67 59.0341 1713.02 63.8352 1713.14 70.1348C1713.21 73.9979 1712.31 78.0978 1710.86 81.6911C1709.11 86.0283 1705.31 88.3519 1700.41 87.8948C1695.52 87.4504 1692.58 84.3863 1691.16 79.9131C1690.48 77.765 1690.38 75.4419 1690.13 73.9767Z" fill="#6049EB"/>
<path d="M554.999 86.2302C558.015 86.2302 561.032 86.0881 564.032 86.2618C570.285 86.5934 573.838 91.6942 571.264 97.3792C568.848 102.701 565.832 107.817 562.547 112.666C559.563 117.056 553.72 117.561 550.167 113.882C546.409 109.981 542.966 105.733 539.634 101.438C537.155 98.2477 536.76 94.663 538.844 90.9677C541.008 87.1303 544.229 85.6617 548.556 86.2144C550.688 86.4829 552.851 86.4355 554.999 86.5461C554.983 86.4513 554.999 86.3408 554.999 86.2302Z" fill="#6049EB"/>
<path d="M473.22 135.531C472.304 141.074 469.682 144.769 465.545 145.353C461.281 145.969 457.902 143.332 456.449 138.121C454.491 131.109 452.533 124.098 450.717 117.055C448.996 110.391 450.369 105.842 454.333 104.295C458.423 102.684 463.397 105.211 465.829 111.512C468.814 119.313 470.804 127.509 473.22 135.531Z" fill="#6049EB"/>
<path d="M950.45 126.372C958.977 126.735 965.152 132.626 964.978 140.253C964.804 147.738 958.582 153.771 951.366 153.455C943.501 153.108 937.153 145.938 937.437 137.742C937.674 130.904 943.201 126.072 950.45 126.372Z" fill="#6049EB"/>
<path d="M281.033 111.38C283.822 116.389 280.556 121.824 275.051 121.642C272.022 121.541 268.743 120.658 266.092 119.178C261.014 116.365 256.177 113.041 251.492 109.598C248.995 107.745 248.218 104.856 249.893 101.936C251.687 98.8407 254.701 98.1932 257.712 99.4753C264.655 102.435 271.489 105.688 278.281 108.964C279.533 109.538 280.417 110.818 281.033 111.38Z" fill="#6049EB"/>
<path d="M747.735 9.57684C747.751 15.9409 742.982 21.0574 736.965 21.1206C730.791 21.1838 724.253 15.2777 724.19 9.57684C724.111 3.00747 729.986 -2.99338 736.397 -2.88284C743.077 -2.75651 747.704 2.32843 747.735 9.57684Z" fill="#6049EB"/>
<path d="M75.9893 180.557C75.8492 170.378 82.9947 162.112 92.0458 162.001C102.218 161.863 112.642 172.458 112.978 183.247C113.286 193.094 105.916 200.86 96.1368 200.998C85.2364 201.137 76.1575 191.956 75.9893 180.557Z" fill="#6049EB"/>
<path d="M1763.99 323.42C1763.9 317.155 1768.53 312.069 1774.4 312.001C1781 311.915 1787.76 318.436 1787.98 325.075C1788.18 331.135 1783.4 335.914 1777.06 335.999C1769.99 336.084 1764.1 330.435 1763.99 323.42Z" fill="#6049EB"/>
<path d="M1087.19 87.0408C1087.2 83.7087 1091.28 80.503 1095.5 80.503C1100.36 80.503 1103.83 83.6772 1103.69 87.9725C1103.55 91.873 1100.07 94.984 1095.86 94.9682C1091.42 94.9682 1087.16 91.0676 1087.19 87.0408Z" fill="#6049EB"/>
<path d="M1473.92 285.206C1474.02 281.463 1477.08 278.873 1481.23 279.047C1485.42 279.221 1488.29 281.953 1487.74 285.853C1487.33 288.759 1487.61 292.707 1483.18 292.975C1478.44 293.259 1473.81 289.169 1473.92 285.206Z" fill="#6049EB"/>
<path d="M165.597 108.281C164.698 112.013 160.178 114.369 155.951 113.305C152.349 112.408 150.386 109.235 151.299 105.818C152.318 102.003 156.122 100.062 160.584 101.041C164.313 101.891 166.402 104.901 165.597 108.281Z" fill="#6049EB"/>
<path d="M85.694 253.002C89.5313 252.907 92.9738 256.665 93.0369 261.024C93.1001 264.735 90.5419 267.451 87.0046 267.451C83.0568 267.451 80.1986 264.277 79.9933 259.713C79.8512 255.892 82.2199 253.097 85.694 253.002Z" fill="#6049EB"/>
<path d="M740.686 132.726C744.569 135.385 745.249 141.651 742.133 146.098C739.489 149.89 734.966 150.796 731.45 148.257C727.527 145.422 727.001 140.166 730.126 135.41C732.772 131.45 737.165 130.328 740.686 132.726Z" fill="#6049EB"/>
<path d="M1284.53 102.001C1288.48 101.953 1291.93 104.891 1291.93 108.302C1291.93 111.776 1289.04 114.729 1285.71 114.65C1282.33 114.571 1279.08 111.349 1279 108.001C1278.92 104.827 1281.51 102.032 1284.53 102.001Z" fill="#6049EB"/>
</g>
<defs>
<clipPath id="clip0_9581_336272">
<rect width="1923" height="380" fill="white" transform="translate(1920 380) rotate(-180)"/>
</clipPath>
</defs>
</svg>
