<svg width="25" height="24" viewBox="0 0 25 24" fill="none" xmlns="http://www.w3.org/2000/svg">
<path fill-rule="evenodd" clip-rule="evenodd" d="M9.94856 4.76579C9.94856 3.2031 11.3545 2 12.9355 2C14.5165 2 15.9197 3.20309 15.9197 4.76579V5.04782L19.9884 5.04782C21.0994 5.04782 21.8881 6.05008 21.8881 7.14822V11.0665C21.8881 11.6155 21.4671 11.9626 20.9116 11.9626H18.8629C18.3944 11.9626 17.9076 12.5243 17.9076 12.9874C17.9076 13.4505 18.3944 13.9646 18.8629 13.9646H20.9116C21.6373 13.9646 21.9174 14.4097 21.9174 14.9588L22 20.0493C22 21.1475 21.0994 21.9231 19.9884 21.9231H14.9428C14.3873 21.9231 13.9369 21.5926 13.9369 21.0435V18.8087C13.9369 18.3442 13.4076 17.9576 12.9376 17.9576C12.4676 17.9576 11.9652 18.3442 11.9652 18.8087V21.0435C11.9652 21.5926 11.5148 21.9231 10.9593 21.9231H7.14557C6.03457 21.9231 5.01372 21.1475 5.01372 20.0493V15.9677H4.74364C3.16408 15.9677 2 14.5487 2 12.9874C2 11.4261 3.16407 10.0049 4.74363 10.0049H4.9806V7.15768C4.9806 6.05954 6.03457 5.04782 7.14557 5.04782L9.94856 5.04782V4.76579ZM12.9355 4.02289C12.4655 4.02289 11.9715 4.58327 11.9715 5.04782V6.1635C11.9715 6.71257 11.5211 7.01066 10.9656 7.01066L6.96778 7.01067V11.3958C6.96778 11.9374 6.46965 11.9875 6.13975 11.9875H4.9806C4.51204 11.9875 3.98836 12.5242 3.98836 12.9874C3.98836 13.4505 4.51204 13.9646 4.9806 13.9646H6.13975C6.69525 13.9646 6.96778 14.5123 6.96778 15.0613L6.96778 19.9437H9.95352V18.8585C9.95352 17.2958 11.3566 15.9677 12.9376 15.9677C14.5186 15.9677 15.9224 17.2958 15.9224 18.8585V19.9437H19.9058V15.9529H18.8629C17.2834 15.9529 15.9197 14.5487 15.9197 12.9874C15.9197 11.4261 17.3659 10.0817 18.9455 10.0817H19.9058V7.01067L14.9742 7.01066C14.4187 7.01066 13.9684 6.71257 13.9684 6.1635V5.04782C13.9684 4.58327 13.4055 4.02289 12.9355 4.02289Z" fill="#878D9A"/>
</svg>
